<svg xmlns="http://www.w3.org/2000/svg" xmlns:xlink="http://www.w3.org/1999/xlink" width="2046" zoomAndPan="magnify" viewBox="0 0 1534.5 705.000001" height="940" preserveAspectRatio="xMidYMid meet" version="1.0"><defs><g/><clipPath id="ec29ccc868"><path d="M 78 0.402344 L 306.664062 0.402344 L 306.664062 95 L 78 95 Z M 78 0.402344 " clip-rule="nonzero"/></clipPath><clipPath id="ebabb41562"><path d="M 78 0.402344 L 276.097656 0.402344 C 292.796875 0.402344 306.332031 13.9375 306.332031 30.636719 L 306.332031 64.652344 C 306.332031 81.351562 292.796875 94.886719 276.097656 94.886719 L 78 94.886719 L 78 0.402344 " clip-rule="nonzero"/></clipPath><clipPath id="f00191a36a"><path d="M 78 143 L 534.695312 143 L 534.695312 237.863281 L 78 237.863281 Z M 78 143 " clip-rule="nonzero"/></clipPath><clipPath id="abe6e80908"><path d="M 78 143.128906 L 504.109375 143.128906 C 520.808594 143.128906 534.347656 156.667969 534.347656 173.367188 L 534.347656 207.382812 C 534.347656 224.082031 520.808594 237.617188 504.109375 237.617188 L 78 237.617188 L 78 143.128906 " clip-rule="nonzero"/></clipPath><clipPath id="42166b3d8e"><path d="M 78 285.484375 L 762.722656 285.484375 L 762.722656 380.722656 L 78 380.722656 Z M 78 285.484375 " clip-rule="nonzero"/></clipPath><clipPath id="26134628b3"><path d="M 78 285.859375 L 732.125 285.859375 C 740.144531 285.859375 747.835938 289.042969 753.503906 294.714844 C 759.175781 300.386719 762.359375 308.074219 762.359375 316.09375 L 762.359375 350.109375 C 762.359375 358.128906 759.175781 365.820312 753.503906 371.492188 C 747.835938 377.160156 740.144531 380.347656 732.125 380.347656 L 78 380.347656 L 78 285.859375 " clip-rule="nonzero"/></clipPath><clipPath id="0cea09a63f"><path d="M 78 428.339844 L 997.738281 428.339844 L 997.738281 523.582031 L 78 523.582031 Z M 78 428.339844 " clip-rule="nonzero"/></clipPath><clipPath id="5a94e42c16"><path d="M 78 428.585938 L 967.265625 428.585938 C 983.964844 428.585938 997.5 442.125 997.5 458.824219 L 997.5 492.839844 C 997.5 509.539062 983.964844 523.074219 967.265625 523.074219 L 78 523.074219 L 78 428.585938 " clip-rule="nonzero"/></clipPath><clipPath id="dfcc9b753d"><path d="M 78 571.199219 L 1303.894531 571.199219 L 1303.894531 665.804688 L 78 665.804688 Z M 78 571.199219 " clip-rule="nonzero"/></clipPath><clipPath id="0ff8818b48"><path d="M 78 571.316406 L 1273.660156 571.316406 C 1281.675781 571.316406 1289.367188 574.503906 1295.039062 580.171875 C 1300.707031 585.84375 1303.894531 593.535156 1303.894531 601.550781 L 1303.894531 635.566406 C 1303.894531 643.585938 1300.707031 651.277344 1295.039062 656.949219 C 1289.367188 662.617188 1281.675781 665.804688 1273.660156 665.804688 L 78 665.804688 L 78 571.316406 " clip-rule="nonzero"/></clipPath><clipPath id="0dd576812e"><path d="M 78 0.402344 L 92.269531 0.402344 L 92.269531 94.886719 L 78 94.886719 Z M 78 0.402344 " clip-rule="nonzero"/></clipPath><clipPath id="7e7f566b5c"><path d="M 78 143.128906 L 106.523438 143.128906 L 106.523438 237.617188 L 78 237.617188 Z M 78 143.128906 " clip-rule="nonzero"/></clipPath><clipPath id="9779b0e252"><path d="M 78 285.859375 L 120.773438 285.859375 L 120.773438 380.347656 L 78 380.347656 Z M 78 285.859375 " clip-rule="nonzero"/></clipPath><clipPath id="6ee933e7c8"><path d="M 78 428.585938 L 142.152344 428.585938 L 142.152344 523.074219 L 78 523.074219 Z M 78 428.585938 " clip-rule="nonzero"/></clipPath><clipPath id="9bcae1dcd9"><path d="M 78 571.316406 L 163.527344 571.316406 L 163.527344 665.804688 L 78 665.804688 Z M 78 571.316406 " clip-rule="nonzero"/></clipPath></defs><g fill="#ffffff" fill-opacity="1"><g transform="translate(70.181831, 697.016572)"><g><path d="M 7.800781 0.222656 C 11.703125 0.222656 13.863281 -3.480469 13.863281 -8.417969 C 13.863281 -13.355469 11.703125 -17.0625 7.800781 -17.0625 C 3.902344 -17.0625 1.769531 -13.355469 1.769531 -8.417969 C 1.769531 -3.480469 3.902344 0.222656 7.800781 0.222656 Z M 7.828125 -1.570312 C 4.996094 -1.570312 3.589844 -4.433594 3.589844 -8.417969 C 3.589844 -12.402344 4.996094 -15.265625 7.828125 -15.265625 C 10.636719 -15.265625 12.066406 -12.402344 12.066406 -8.417969 C 12.066406 -4.433594 10.636719 -1.570312 7.828125 -1.570312 Z M 7.828125 -1.570312 "/></g></g></g><g fill="#ffffff" fill-opacity="1"><g transform="translate(412.514569, 697.016572)"><g><path d="M 4.460938 -1.796875 L 8.726562 -6.539062 C 11.308594 -9.398438 12.066406 -10.523438 11.980469 -12.457031 C 11.898438 -15.292969 9.738281 -17.0625 7.015625 -17.089844 C 4.097656 -17.117188 1.769531 -15.097656 1.796875 -12.09375 L 3.761719 -12.09375 C 3.730469 -14.085938 5.136719 -15.320312 6.929688 -15.292969 C 8.644531 -15.265625 10.046875 -14.226562 10.046875 -12.148438 C 10.046875 -10.972656 9.625 -10.15625 7.4375 -7.714844 L 0.394531 0 L 12.515625 0 L 12.515625 -1.796875 Z M 4.460938 -1.796875 "/></g></g></g><g fill="#ffffff" fill-opacity="1"><g transform="translate(426.28765, 697.016572)"><g><path d="M 7.15625 -11.140625 C 5.949219 -11.140625 4.796875 -10.773438 3.929688 -10.128906 L 4.546875 -14.984375 L 11.5625 -14.984375 L 11.5625 -16.78125 L 2.945312 -16.78125 L 1.992188 -8.921875 L 3.5625 -7.996094 C 4.378906 -8.839844 5.527344 -9.34375 6.789062 -9.34375 C 8.980469 -9.34375 10.746094 -7.773438 10.746094 -5.445312 C 10.746094 -3.28125 9.230469 -1.570312 6.511719 -1.570312 C 4.882812 -1.570312 2.890625 -2.1875 1.570312 -4.070312 L 1.402344 -4.070312 L 1.179688 -1.9375 C 2.328125 -0.589844 4.488281 0.222656 6.566406 0.222656 C 10.214844 0.222656 12.542969 -2.214844 12.542969 -5.5 C 12.542969 -8.726562 10.269531 -11.140625 7.15625 -11.140625 Z M 7.15625 -11.140625 "/></g></g></g><g fill="#ffffff" fill-opacity="1"><g transform="translate(440.397345, 697.016572)"><g><path d="M 7.800781 0.222656 C 11.703125 0.222656 13.863281 -3.480469 13.863281 -8.417969 C 13.863281 -13.355469 11.703125 -17.0625 7.800781 -17.0625 C 3.902344 -17.0625 1.769531 -13.355469 1.769531 -8.417969 C 1.769531 -3.480469 3.902344 0.222656 7.800781 0.222656 Z M 7.828125 -1.570312 C 4.996094 -1.570312 3.589844 -4.433594 3.589844 -8.417969 C 3.589844 -12.402344 4.996094 -15.265625 7.828125 -15.265625 C 10.636719 -15.265625 12.066406 -12.402344 12.066406 -8.417969 C 12.066406 -4.433594 10.636719 -1.570312 7.828125 -1.570312 Z M 7.828125 -1.570312 "/></g></g></g><g fill="#ffffff" fill-opacity="1"><g transform="translate(767.860366, 697.016572)"><g><path d="M 7.15625 -11.140625 C 5.949219 -11.140625 4.796875 -10.773438 3.929688 -10.128906 L 4.546875 -14.984375 L 11.5625 -14.984375 L 11.5625 -16.78125 L 2.945312 -16.78125 L 1.992188 -8.921875 L 3.5625 -7.996094 C 4.378906 -8.839844 5.527344 -9.34375 6.789062 -9.34375 C 8.980469 -9.34375 10.746094 -7.773438 10.746094 -5.445312 C 10.746094 -3.28125 9.230469 -1.570312 6.511719 -1.570312 C 4.882812 -1.570312 2.890625 -2.1875 1.570312 -4.070312 L 1.402344 -4.070312 L 1.179688 -1.9375 C 2.328125 -0.589844 4.488281 0.222656 6.566406 0.222656 C 10.214844 0.222656 12.542969 -2.214844 12.542969 -5.5 C 12.542969 -8.726562 10.269531 -11.140625 7.15625 -11.140625 Z M 7.15625 -11.140625 "/></g></g></g><g fill="#ffffff" fill-opacity="1"><g transform="translate(781.970061, 697.016572)"><g><path d="M 7.800781 0.222656 C 11.703125 0.222656 13.863281 -3.480469 13.863281 -8.417969 C 13.863281 -13.355469 11.703125 -17.0625 7.800781 -17.0625 C 3.902344 -17.0625 1.769531 -13.355469 1.769531 -8.417969 C 1.769531 -3.480469 3.902344 0.222656 7.800781 0.222656 Z M 7.828125 -1.570312 C 4.996094 -1.570312 3.589844 -4.433594 3.589844 -8.417969 C 3.589844 -12.402344 4.996094 -15.265625 7.828125 -15.265625 C 10.636719 -15.265625 12.066406 -12.402344 12.066406 -8.417969 C 12.066406 -4.433594 10.636719 -1.570312 7.828125 -1.570312 Z M 7.828125 -1.570312 "/></g></g></g><g fill="#ffffff" fill-opacity="1"><g transform="translate(797.594522, 697.016572)"><g><path d="M 7.800781 0.222656 C 11.703125 0.222656 13.863281 -3.480469 13.863281 -8.417969 C 13.863281 -13.355469 11.703125 -17.0625 7.800781 -17.0625 C 3.902344 -17.0625 1.769531 -13.355469 1.769531 -8.417969 C 1.769531 -3.480469 3.902344 0.222656 7.800781 0.222656 Z M 7.828125 -1.570312 C 4.996094 -1.570312 3.589844 -4.433594 3.589844 -8.417969 C 3.589844 -12.402344 4.996094 -15.265625 7.828125 -15.265625 C 10.636719 -15.265625 12.066406 -12.402344 12.066406 -8.417969 C 12.066406 -4.433594 10.636719 -1.570312 7.828125 -1.570312 Z M 7.828125 -1.570312 "/></g></g></g><g fill="#ffffff" fill-opacity="1"><g transform="translate(1125.406314, 697.016572)"><g><path d="M 1.152344 -16.835938 L 1.152344 -15.039062 L 10.074219 -15.039062 L 1.460938 0 L 3.5625 0 L 12.347656 -15.65625 L 12.347656 -16.835938 Z M 1.152344 -16.835938 "/></g></g></g><g fill="#ffffff" fill-opacity="1"><g transform="translate(1138.478118, 697.016572)"><g><path d="M 7.15625 -11.140625 C 5.949219 -11.140625 4.796875 -10.773438 3.929688 -10.128906 L 4.546875 -14.984375 L 11.5625 -14.984375 L 11.5625 -16.78125 L 2.945312 -16.78125 L 1.992188 -8.921875 L 3.5625 -7.996094 C 4.378906 -8.839844 5.527344 -9.34375 6.789062 -9.34375 C 8.980469 -9.34375 10.746094 -7.773438 10.746094 -5.445312 C 10.746094 -3.28125 9.230469 -1.570312 6.511719 -1.570312 C 4.882812 -1.570312 2.890625 -2.1875 1.570312 -4.070312 L 1.402344 -4.070312 L 1.179688 -1.9375 C 2.328125 -0.589844 4.488281 0.222656 6.566406 0.222656 C 10.214844 0.222656 12.542969 -2.214844 12.542969 -5.5 C 12.542969 -8.726562 10.269531 -11.140625 7.15625 -11.140625 Z M 7.15625 -11.140625 "/></g></g></g><g fill="#ffffff" fill-opacity="1"><g transform="translate(1152.587813, 697.016572)"><g><path d="M 7.800781 0.222656 C 11.703125 0.222656 13.863281 -3.480469 13.863281 -8.417969 C 13.863281 -13.355469 11.703125 -17.0625 7.800781 -17.0625 C 3.902344 -17.0625 1.769531 -13.355469 1.769531 -8.417969 C 1.769531 -3.480469 3.902344 0.222656 7.800781 0.222656 Z M 7.828125 -1.570312 C 4.996094 -1.570312 3.589844 -4.433594 3.589844 -8.417969 C 3.589844 -12.402344 4.996094 -15.265625 7.828125 -15.265625 C 10.636719 -15.265625 12.066406 -12.402344 12.066406 -8.417969 C 12.066406 -4.433594 10.636719 -1.570312 7.828125 -1.570312 Z M 7.828125 -1.570312 "/></g></g></g><g fill="#ffffff" fill-opacity="1"><g transform="translate(1472.982644, 697.016572)"><g><path d="M 3.902344 0 L 5.695312 0 L 5.695312 -16.835938 L 1.09375 -16.835938 L 1.09375 -15.039062 L 3.902344 -15.039062 Z M 3.902344 0 "/></g></g></g><g fill="#ffffff" fill-opacity="1"><g transform="translate(1481.594329, 697.016572)"><g><path d="M 1.597656 3.480469 L 5.050781 -2.835938 L 3.085938 -2.835938 L 0.140625 3.480469 Z M 1.597656 3.480469 "/></g></g></g><g fill="#ffffff" fill-opacity="1"><g transform="translate(1486.30691, 697.016572)"><g><path d="M 7.800781 0.222656 C 11.703125 0.222656 13.863281 -3.480469 13.863281 -8.417969 C 13.863281 -13.355469 11.703125 -17.0625 7.800781 -17.0625 C 3.902344 -17.0625 1.769531 -13.355469 1.769531 -8.417969 C 1.769531 -3.480469 3.902344 0.222656 7.800781 0.222656 Z M 7.828125 -1.570312 C 4.996094 -1.570312 3.589844 -4.433594 3.589844 -8.417969 C 3.589844 -12.402344 4.996094 -15.265625 7.828125 -15.265625 C 10.636719 -15.265625 12.066406 -12.402344 12.066406 -8.417969 C 12.066406 -4.433594 10.636719 -1.570312 7.828125 -1.570312 Z M 7.828125 -1.570312 "/></g></g></g><g fill="#ffffff" fill-opacity="1"><g transform="translate(1501.931371, 697.016572)"><g><path d="M 7.800781 0.222656 C 11.703125 0.222656 13.863281 -3.480469 13.863281 -8.417969 C 13.863281 -13.355469 11.703125 -17.0625 7.800781 -17.0625 C 3.902344 -17.0625 1.769531 -13.355469 1.769531 -8.417969 C 1.769531 -3.480469 3.902344 0.222656 7.800781 0.222656 Z M 7.828125 -1.570312 C 4.996094 -1.570312 3.589844 -4.433594 3.589844 -8.417969 C 3.589844 -12.402344 4.996094 -15.265625 7.828125 -15.265625 C 10.636719 -15.265625 12.066406 -12.402344 12.066406 -8.417969 C 12.066406 -4.433594 10.636719 -1.570312 7.828125 -1.570312 Z M 7.828125 -1.570312 "/></g></g></g><g fill="#ffffff" fill-opacity="1"><g transform="translate(1517.555832, 697.016572)"><g><path d="M 7.800781 0.222656 C 11.703125 0.222656 13.863281 -3.480469 13.863281 -8.417969 C 13.863281 -13.355469 11.703125 -17.0625 7.800781 -17.0625 C 3.902344 -17.0625 1.769531 -13.355469 1.769531 -8.417969 C 1.769531 -3.480469 3.902344 0.222656 7.800781 0.222656 Z M 7.828125 -1.570312 C 4.996094 -1.570312 3.589844 -4.433594 3.589844 -8.417969 C 3.589844 -12.402344 4.996094 -15.265625 7.828125 -15.265625 C 10.636719 -15.265625 12.066406 -12.402344 12.066406 -8.417969 C 12.066406 -4.433594 10.636719 -1.570312 7.828125 -1.570312 Z M 7.828125 -1.570312 "/></g></g></g><g fill="#ffffff" fill-opacity="1"><g transform="translate(8.823103, 54.316903)"><g><path d="M 4.460938 -1.796875 L 8.726562 -6.539062 C 11.308594 -9.398438 12.066406 -10.523438 11.980469 -12.457031 C 11.898438 -15.292969 9.738281 -17.0625 7.015625 -17.089844 C 4.097656 -17.117188 1.769531 -15.097656 1.796875 -12.09375 L 3.761719 -12.09375 C 3.730469 -14.085938 5.136719 -15.320312 6.929688 -15.292969 C 8.644531 -15.265625 10.046875 -14.226562 10.046875 -12.148438 C 10.046875 -10.972656 9.625 -10.15625 7.4375 -7.714844 L 0.394531 0 L 12.515625 0 L 12.515625 -1.796875 Z M 4.460938 -1.796875 "/></g></g></g><g fill="#ffffff" fill-opacity="1"><g transform="translate(22.596184, 54.316903)"><g><path d="M 7.800781 0.222656 C 11.703125 0.222656 13.863281 -3.480469 13.863281 -8.417969 C 13.863281 -13.355469 11.703125 -17.0625 7.800781 -17.0625 C 3.902344 -17.0625 1.769531 -13.355469 1.769531 -8.417969 C 1.769531 -3.480469 3.902344 0.222656 7.800781 0.222656 Z M 7.828125 -1.570312 C 4.996094 -1.570312 3.589844 -4.433594 3.589844 -8.417969 C 3.589844 -12.402344 4.996094 -15.265625 7.828125 -15.265625 C 10.636719 -15.265625 12.066406 -12.402344 12.066406 -8.417969 C 12.066406 -4.433594 10.636719 -1.570312 7.828125 -1.570312 Z M 7.828125 -1.570312 "/></g></g></g><g fill="#ffffff" fill-opacity="1"><g transform="translate(38.220645, 54.316903)"><g><path d="M 3.902344 0 L 5.695312 0 L 5.695312 -16.835938 L 1.09375 -16.835938 L 1.09375 -15.039062 L 3.902344 -15.039062 Z M 3.902344 0 "/></g></g></g><g fill="#ffffff" fill-opacity="1"><g transform="translate(46.832329, 54.316903)"><g><path d="M 9.007812 -9.371094 C 10.214844 -10.074219 10.972656 -11.363281 10.972656 -12.878906 C 10.972656 -15.238281 9.089844 -17.0625 6.59375 -17.0625 C 4.097656 -17.0625 2.1875 -15.238281 2.1875 -12.878906 C 2.1875 -11.363281 2.972656 -10.101562 4.179688 -9.371094 C 2.414062 -8.558594 1.234375 -6.875 1.234375 -4.855469 C 1.234375 -2.019531 3.5625 0.222656 6.566406 0.222656 C 9.625 0.222656 11.953125 -2.019531 11.953125 -4.855469 C 11.953125 -6.875 10.773438 -8.558594 9.007812 -9.371094 Z M 6.59375 -15.347656 C 8.109375 -15.347656 9.316406 -14.140625 9.316406 -12.597656 C 9.316406 -11.082031 8.109375 -9.90625 6.59375 -9.90625 C 5.050781 -9.90625 3.84375 -11.082031 3.84375 -12.597656 C 3.84375 -14.140625 5.050781 -15.347656 6.59375 -15.347656 Z M 6.566406 -1.375 C 4.601562 -1.375 3.03125 -3.003906 3.03125 -4.964844 C 3.03125 -6.960938 4.601562 -8.53125 6.566406 -8.53125 C 8.558594 -8.53125 10.128906 -6.960938 10.128906 -4.964844 C 10.128906 -3.003906 8.558594 -1.375 6.566406 -1.375 Z M 6.566406 -1.375 "/></g></g></g><g fill="#ffffff" fill-opacity="1"><g transform="translate(59.997453, 54.316903)"><g/></g></g><g fill="#ffffff" fill-opacity="1"><g transform="translate(7.123688, 197.045698)"><g><path d="M 4.460938 -1.796875 L 8.726562 -6.539062 C 11.308594 -9.398438 12.066406 -10.523438 11.980469 -12.457031 C 11.898438 -15.292969 9.738281 -17.0625 7.015625 -17.089844 C 4.097656 -17.117188 1.769531 -15.097656 1.796875 -12.09375 L 3.761719 -12.09375 C 3.730469 -14.085938 5.136719 -15.320312 6.929688 -15.292969 C 8.644531 -15.265625 10.046875 -14.226562 10.046875 -12.148438 C 10.046875 -10.972656 9.625 -10.15625 7.4375 -7.714844 L 0.394531 0 L 12.515625 0 L 12.515625 -1.796875 Z M 4.460938 -1.796875 "/></g></g></g><g fill="#ffffff" fill-opacity="1"><g transform="translate(20.896769, 197.045698)"><g><path d="M 7.800781 0.222656 C 11.703125 0.222656 13.863281 -3.480469 13.863281 -8.417969 C 13.863281 -13.355469 11.703125 -17.0625 7.800781 -17.0625 C 3.902344 -17.0625 1.769531 -13.355469 1.769531 -8.417969 C 1.769531 -3.480469 3.902344 0.222656 7.800781 0.222656 Z M 7.828125 -1.570312 C 4.996094 -1.570312 3.589844 -4.433594 3.589844 -8.417969 C 3.589844 -12.402344 4.996094 -15.265625 7.828125 -15.265625 C 10.636719 -15.265625 12.066406 -12.402344 12.066406 -8.417969 C 12.066406 -4.433594 10.636719 -1.570312 7.828125 -1.570312 Z M 7.828125 -1.570312 "/></g></g></g><g fill="#ffffff" fill-opacity="1"><g transform="translate(36.52123, 197.045698)"><g><path d="M 3.902344 0 L 5.695312 0 L 5.695312 -16.835938 L 1.09375 -16.835938 L 1.09375 -15.039062 L 3.902344 -15.039062 Z M 3.902344 0 "/></g></g></g><g fill="#ffffff" fill-opacity="1"><g transform="translate(45.132914, 197.045698)"><g><path d="M 13.328125 -11.5625 C 13.160156 -14.703125 10.4375 -17.171875 7.183594 -17.003906 C 3.984375 -16.835938 1.429688 -14.226562 1.570312 -11.027344 C 1.710938 -7.714844 4.65625 -5.613281 7.238281 -5.640625 C 7.800781 -5.640625 8.25 -5.753906 8.613281 -5.863281 L 3.675781 0 L 5.949219 0 L 11.871094 -7.492188 C 12.796875 -8.613281 13.386719 -9.988281 13.328125 -11.5625 Z M 7.6875 -7.15625 C 5.304688 -7.015625 3.453125 -8.671875 3.3125 -11.054688 C 3.171875 -13.328125 4.796875 -15.125 7.210938 -15.265625 C 9.570312 -15.40625 11.390625 -13.832031 11.53125 -11.53125 C 11.671875 -9.148438 10.046875 -7.296875 7.6875 -7.15625 Z M 7.6875 -7.15625 "/></g></g></g><g fill="#ffffff" fill-opacity="1"><g transform="translate(60.005173, 197.045698)"><g/></g></g><g fill="#ffffff" fill-opacity="1"><g transform="translate(1.201647, 339.77452)"><g><path d="M 4.460938 -1.796875 L 8.726562 -6.539062 C 11.308594 -9.398438 12.066406 -10.523438 11.980469 -12.457031 C 11.898438 -15.292969 9.738281 -17.0625 7.015625 -17.089844 C 4.097656 -17.117188 1.769531 -15.097656 1.796875 -12.09375 L 3.761719 -12.09375 C 3.730469 -14.085938 5.136719 -15.320312 6.929688 -15.292969 C 8.644531 -15.265625 10.046875 -14.226562 10.046875 -12.148438 C 10.046875 -10.972656 9.625 -10.15625 7.4375 -7.714844 L 0.394531 0 L 12.515625 0 L 12.515625 -1.796875 Z M 4.460938 -1.796875 "/></g></g></g><g fill="#ffffff" fill-opacity="1"><g transform="translate(14.974727, 339.77452)"><g><path d="M 7.800781 0.222656 C 11.703125 0.222656 13.863281 -3.480469 13.863281 -8.417969 C 13.863281 -13.355469 11.703125 -17.0625 7.800781 -17.0625 C 3.902344 -17.0625 1.769531 -13.355469 1.769531 -8.417969 C 1.769531 -3.480469 3.902344 0.222656 7.800781 0.222656 Z M 7.828125 -1.570312 C 4.996094 -1.570312 3.589844 -4.433594 3.589844 -8.417969 C 3.589844 -12.402344 4.996094 -15.265625 7.828125 -15.265625 C 10.636719 -15.265625 12.066406 -12.402344 12.066406 -8.417969 C 12.066406 -4.433594 10.636719 -1.570312 7.828125 -1.570312 Z M 7.828125 -1.570312 "/></g></g></g><g fill="#ffffff" fill-opacity="1"><g transform="translate(30.599188, 339.77452)"><g><path d="M 4.460938 -1.796875 L 8.726562 -6.539062 C 11.308594 -9.398438 12.066406 -10.523438 11.980469 -12.457031 C 11.898438 -15.292969 9.738281 -17.0625 7.015625 -17.089844 C 4.097656 -17.117188 1.769531 -15.097656 1.796875 -12.09375 L 3.761719 -12.09375 C 3.730469 -14.085938 5.136719 -15.320312 6.929688 -15.292969 C 8.644531 -15.265625 10.046875 -14.226562 10.046875 -12.148438 C 10.046875 -10.972656 9.625 -10.15625 7.4375 -7.714844 L 0.394531 0 L 12.515625 0 L 12.515625 -1.796875 Z M 4.460938 -1.796875 "/></g></g></g><g fill="#ffffff" fill-opacity="1"><g transform="translate(44.372269, 339.77452)"><g><path d="M 7.800781 0.222656 C 11.703125 0.222656 13.863281 -3.480469 13.863281 -8.417969 C 13.863281 -13.355469 11.703125 -17.0625 7.800781 -17.0625 C 3.902344 -17.0625 1.769531 -13.355469 1.769531 -8.417969 C 1.769531 -3.480469 3.902344 0.222656 7.800781 0.222656 Z M 7.828125 -1.570312 C 4.996094 -1.570312 3.589844 -4.433594 3.589844 -8.417969 C 3.589844 -12.402344 4.996094 -15.265625 7.828125 -15.265625 C 10.636719 -15.265625 12.066406 -12.402344 12.066406 -8.417969 C 12.066406 -4.433594 10.636719 -1.570312 7.828125 -1.570312 Z M 7.828125 -1.570312 "/></g></g></g><g fill="#ffffff" fill-opacity="1"><g transform="translate(8.21546, 482.503335)"><g><path d="M 4.460938 -1.796875 L 8.726562 -6.539062 C 11.308594 -9.398438 12.066406 -10.523438 11.980469 -12.457031 C 11.898438 -15.292969 9.738281 -17.0625 7.015625 -17.089844 C 4.097656 -17.117188 1.769531 -15.097656 1.796875 -12.09375 L 3.761719 -12.09375 C 3.730469 -14.085938 5.136719 -15.320312 6.929688 -15.292969 C 8.644531 -15.265625 10.046875 -14.226562 10.046875 -12.148438 C 10.046875 -10.972656 9.625 -10.15625 7.4375 -7.714844 L 0.394531 0 L 12.515625 0 L 12.515625 -1.796875 Z M 4.460938 -1.796875 "/></g></g></g><g fill="#ffffff" fill-opacity="1"><g transform="translate(21.988541, 482.503335)"><g><path d="M 7.800781 0.222656 C 11.703125 0.222656 13.863281 -3.480469 13.863281 -8.417969 C 13.863281 -13.355469 11.703125 -17.0625 7.800781 -17.0625 C 3.902344 -17.0625 1.769531 -13.355469 1.769531 -8.417969 C 1.769531 -3.480469 3.902344 0.222656 7.800781 0.222656 Z M 7.828125 -1.570312 C 4.996094 -1.570312 3.589844 -4.433594 3.589844 -8.417969 C 3.589844 -12.402344 4.996094 -15.265625 7.828125 -15.265625 C 10.636719 -15.265625 12.066406 -12.402344 12.066406 -8.417969 C 12.066406 -4.433594 10.636719 -1.570312 7.828125 -1.570312 Z M 7.828125 -1.570312 "/></g></g></g><g fill="#ffffff" fill-opacity="1"><g transform="translate(37.613002, 482.503335)"><g><path d="M 4.460938 -1.796875 L 8.726562 -6.539062 C 11.308594 -9.398438 12.066406 -10.523438 11.980469 -12.457031 C 11.898438 -15.292969 9.738281 -17.0625 7.015625 -17.089844 C 4.097656 -17.117188 1.769531 -15.097656 1.796875 -12.09375 L 3.761719 -12.09375 C 3.730469 -14.085938 5.136719 -15.320312 6.929688 -15.292969 C 8.644531 -15.265625 10.046875 -14.226562 10.046875 -12.148438 C 10.046875 -10.972656 9.625 -10.15625 7.4375 -7.714844 L 0.394531 0 L 12.515625 0 L 12.515625 -1.796875 Z M 4.460938 -1.796875 "/></g></g></g><g fill="#ffffff" fill-opacity="1"><g transform="translate(51.386083, 482.503335)"><g><path d="M 3.902344 0 L 5.695312 0 L 5.695312 -16.835938 L 1.09375 -16.835938 L 1.09375 -15.039062 L 3.902344 -15.039062 Z M 3.902344 0 "/></g></g></g><g fill="#ffffff" fill-opacity="1"><g transform="translate(60.005173, 482.503335)"><g/></g></g><g fill="#ffffff" fill-opacity="1"><g transform="translate(3.054355, 625.232133)"><g><path d="M 4.460938 -1.796875 L 8.726562 -6.539062 C 11.308594 -9.398438 12.066406 -10.523438 11.980469 -12.457031 C 11.898438 -15.292969 9.738281 -17.0625 7.015625 -17.089844 C 4.097656 -17.117188 1.769531 -15.097656 1.796875 -12.09375 L 3.761719 -12.09375 C 3.730469 -14.085938 5.136719 -15.320312 6.929688 -15.292969 C 8.644531 -15.265625 10.046875 -14.226562 10.046875 -12.148438 C 10.046875 -10.972656 9.625 -10.15625 7.4375 -7.714844 L 0.394531 0 L 12.515625 0 L 12.515625 -1.796875 Z M 4.460938 -1.796875 "/></g></g></g><g fill="#ffffff" fill-opacity="1"><g transform="translate(16.827436, 625.232133)"><g><path d="M 7.800781 0.222656 C 11.703125 0.222656 13.863281 -3.480469 13.863281 -8.417969 C 13.863281 -13.355469 11.703125 -17.0625 7.800781 -17.0625 C 3.902344 -17.0625 1.769531 -13.355469 1.769531 -8.417969 C 1.769531 -3.480469 3.902344 0.222656 7.800781 0.222656 Z M 7.828125 -1.570312 C 4.996094 -1.570312 3.589844 -4.433594 3.589844 -8.417969 C 3.589844 -12.402344 4.996094 -15.265625 7.828125 -15.265625 C 10.636719 -15.265625 12.066406 -12.402344 12.066406 -8.417969 C 12.066406 -4.433594 10.636719 -1.570312 7.828125 -1.570312 Z M 7.828125 -1.570312 "/></g></g></g><g fill="#ffffff" fill-opacity="1"><g transform="translate(32.451896, 625.232133)"><g><path d="M 4.460938 -1.796875 L 8.726562 -6.539062 C 11.308594 -9.398438 12.066406 -10.523438 11.980469 -12.457031 C 11.898438 -15.292969 9.738281 -17.0625 7.015625 -17.089844 C 4.097656 -17.117188 1.769531 -15.097656 1.796875 -12.09375 L 3.761719 -12.09375 C 3.730469 -14.085938 5.136719 -15.320312 6.929688 -15.292969 C 8.644531 -15.265625 10.046875 -14.226562 10.046875 -12.148438 C 10.046875 -10.972656 9.625 -10.15625 7.4375 -7.714844 L 0.394531 0 L 12.515625 0 L 12.515625 -1.796875 Z M 4.460938 -1.796875 "/></g></g></g><g fill="#ffffff" fill-opacity="1"><g transform="translate(46.224977, 625.232133)"><g><path d="M 4.460938 -1.796875 L 8.726562 -6.539062 C 11.308594 -9.398438 12.066406 -10.523438 11.980469 -12.457031 C 11.898438 -15.292969 9.738281 -17.0625 7.015625 -17.089844 C 4.097656 -17.117188 1.769531 -15.097656 1.796875 -12.09375 L 3.761719 -12.09375 C 3.730469 -14.085938 5.136719 -15.320312 6.929688 -15.292969 C 8.644531 -15.265625 10.046875 -14.226562 10.046875 -12.148438 C 10.046875 -10.972656 9.625 -10.15625 7.4375 -7.714844 L 0.394531 0 L 12.515625 0 L 12.515625 -1.796875 Z M 4.460938 -1.796875 "/></g></g></g><g fill="#ffffff" fill-opacity="1"><g transform="translate(60.005173, 625.232133)"><g/></g></g><g clip-path="url(#ec29ccc868)"><g clip-path="url(#ebabb41562)"><path fill="#3fffff" d="M 78 0.402344 L 1303.894531 0.402344 L 1303.894531 665.804688 L 78 665.804688 Z M 78 0.402344 " fill-opacity="1" fill-rule="nonzero"/></g></g><g clip-path="url(#f00191a36a)"><g clip-path="url(#abe6e80908)"><path fill="#3fffff" d="M 78 0.402344 L 1303.894531 0.402344 L 1303.894531 665.804688 L 78 665.804688 Z M 78 0.402344 " fill-opacity="1" fill-rule="nonzero"/></g></g><g clip-path="url(#42166b3d8e)"><g clip-path="url(#26134628b3)"><path fill="#3fffff" d="M 78 0.402344 L 1303.894531 0.402344 L 1303.894531 665.804688 L 78 665.804688 Z M 78 0.402344 " fill-opacity="1" fill-rule="nonzero"/></g></g><g clip-path="url(#0cea09a63f)"><g clip-path="url(#5a94e42c16)"><path fill="#3fffff" d="M 78 0.402344 L 1303.894531 0.402344 L 1303.894531 665.804688 L 78 665.804688 Z M 78 0.402344 " fill-opacity="1" fill-rule="nonzero"/></g></g><g clip-path="url(#dfcc9b753d)"><g clip-path="url(#0ff8818b48)"><path fill="#3fffff" d="M 78 0.402344 L 1303.894531 0.402344 L 1303.894531 665.804688 L 78 665.804688 Z M 78 0.402344 " fill-opacity="1" fill-rule="nonzero"/></g></g><g clip-path="url(#0dd576812e)"><path fill="#bd06fc" d="M 78 0.402344 L 1303.894531 0.402344 L 1303.894531 665.804688 L 78 665.804688 Z M 78 0.402344 " fill-opacity="1" fill-rule="nonzero"/></g><g clip-path="url(#7e7f566b5c)"><path fill="#bd06fc" d="M 78 0.402344 L 1303.894531 0.402344 L 1303.894531 665.804688 L 78 665.804688 Z M 78 0.402344 " fill-opacity="1" fill-rule="nonzero"/></g><g clip-path="url(#9779b0e252)"><path fill="#bd06fc" d="M 78 0.402344 L 1303.894531 0.402344 L 1303.894531 665.804688 L 78 665.804688 Z M 78 0.402344 " fill-opacity="1" fill-rule="nonzero"/></g><g clip-path="url(#6ee933e7c8)"><path fill="#bd06fc" d="M 78 0.402344 L 1303.894531 0.402344 L 1303.894531 665.804688 L 78 665.804688 Z M 78 0.402344 " fill-opacity="1" fill-rule="nonzero"/></g><g clip-path="url(#9bcae1dcd9)"><path fill="#bd06fc" d="M 78 0.402344 L 1303.894531 0.402344 L 1303.894531 665.804688 L 78 665.804688 Z M 78 0.402344 " fill-opacity="1" fill-rule="nonzero"/></g></svg>