<svg xmlns="http://www.w3.org/2000/svg" xmlns:xlink="http://www.w3.org/1999/xlink" width="691" zoomAndPan="magnify" viewBox="0 0 518.25 282.749996" height="377" preserveAspectRatio="xMidYMid meet" version="1.0"><defs><g/><clipPath id="09a266e6d4"><path d="M 0.0195312 0.527344 L 516.773438 0.527344 L 516.773438 39.46875 L 0.0195312 39.46875 Z M 0.0195312 0.527344 " clip-rule="nonzero"/></clipPath><clipPath id="7a76e13b7e"><path d="M 5.210938 234.503906 L 502.492188 234.503906 L 502.492188 236.75 L 5.210938 236.75 Z M 5.210938 234.503906 " clip-rule="nonzero"/></clipPath><clipPath id="80913105ff"><path d="M 5.210938 102.8125 L 502.492188 102.8125 L 502.492188 105.058594 L 5.210938 105.058594 Z M 5.210938 102.8125 " clip-rule="nonzero"/></clipPath><clipPath id="c521f75421"><path d="M 263.503906 130.984375 L 291.960938 130.984375 L 291.960938 149.707031 L 263.503906 149.707031 Z M 263.503906 130.984375 " clip-rule="nonzero"/></clipPath><clipPath id="dbbc05b4ee"><path d="M 416.949219 128.195312 L 444.660156 128.195312 L 444.660156 152.910156 L 416.949219 152.910156 Z M 416.949219 128.195312 " clip-rule="nonzero"/></clipPath><clipPath id="ccabbe1679"><path d="M 5.210938 170.050781 L 502.492188 170.050781 L 502.492188 172.296875 L 5.210938 172.296875 Z M 5.210938 170.050781 " clip-rule="nonzero"/></clipPath></defs><g clip-path="url(#09a266e6d4)"><path fill="#8547ff" d="M 0.0195312 -238.546875 L 516.773438 -238.546875 L 516.773438 278.203125 L 0.0195312 278.203125 Z M 0.0195312 -238.546875 " fill-opacity="1" fill-rule="nonzero"/></g><g clip-path="url(#7a76e13b7e)"><path fill="#8c52ff" d="M 5.210938 -13.074219 L 502.492188 -13.074219 L 502.492188 484.203125 L 5.210938 484.203125 Z M 5.210938 -13.074219 " fill-opacity="1" fill-rule="nonzero"/></g><g clip-path="url(#80913105ff)"><path fill="#8547ff" d="M 5.210938 -144.765625 L 502.492188 -144.765625 L 502.492188 352.515625 L 5.210938 352.515625 Z M 5.210938 -144.765625 " fill-opacity="1" fill-rule="nonzero"/></g><g fill="#fcfff9" fill-opacity="1"><g transform="translate(21.9648, 133.16653)"><g><path d="M 6.484375 -6.171875 L 2.734375 -6.171875 L 2.734375 -4.390625 L 6.1875 -4.390625 L 6.1875 -2.84375 L 2.734375 -2.84375 L 2.734375 0 L 0.765625 0 L 0.765625 -7.71875 L 6.484375 -7.71875 Z M 6.484375 -6.171875 "/></g></g></g><g fill="#fcfff9" fill-opacity="1"><g transform="translate(30.150698, 133.16653)"><g><path d="M 6.8125 -6.171875 L 2.734375 -6.171875 L 2.734375 -4.640625 L 6.40625 -4.640625 L 6.40625 -3.09375 L 2.734375 -3.09375 L 2.734375 -1.546875 L 6.921875 -1.546875 L 6.921875 0 L 0.765625 0 L 0.765625 -7.71875 L 6.8125 -7.71875 Z M 6.8125 -6.171875 "/></g></g></g><g fill="#fcfff9" fill-opacity="1"><g transform="translate(39.106574, 133.16653)"><g><path d="M 5.890625 -1.421875 L 2.515625 -1.421875 L 1.953125 0 L -0.0625 0 L 3.265625 -7.71875 L 5.28125 -7.71875 L 8.53125 0 L 6.4375 0 Z M 5.328125 -2.90625 L 4.21875 -5.765625 L 3.09375 -2.90625 Z M 5.328125 -2.90625 "/></g></g></g><g fill="#fcfff9" fill-opacity="1"><g transform="translate(49.118422, 133.16653)"><g><path d="M 6.671875 -6.140625 L 4.34375 -6.140625 L 4.34375 0 L 2.375 0 L 2.375 -6.140625 L 0.078125 -6.140625 L 0.078125 -7.71875 L 6.671875 -7.71875 Z M 6.671875 -6.140625 "/></g></g></g><g fill="#fcfff9" fill-opacity="1"><g transform="translate(57.38132, 133.16653)"><g><path d="M 7.71875 -7.71875 L 7.71875 -3.234375 C 7.71875 -2.210938 7.398438 -1.398438 6.765625 -0.796875 C 6.128906 -0.203125 5.273438 0.09375 4.203125 0.09375 C 3.109375 0.09375 2.238281 -0.203125 1.59375 -0.796875 C 0.957031 -1.398438 0.640625 -2.210938 0.640625 -3.234375 L 0.640625 -7.71875 L 2.59375 -7.71875 L 2.59375 -3.234375 C 2.59375 -2.722656 2.738281 -2.3125 3.03125 -2 C 3.332031 -1.695312 3.722656 -1.546875 4.203125 -1.546875 C 4.671875 -1.546875 5.046875 -1.695312 5.328125 -2 C 5.617188 -2.300781 5.765625 -2.710938 5.765625 -3.234375 L 5.765625 -7.71875 Z M 7.71875 -7.71875 "/></g></g></g><g fill="#fcfff9" fill-opacity="1"><g transform="translate(67.261172, 133.16653)"><g><path d="M 5.421875 0 L 4.28125 -2.171875 L 2.734375 -2.171875 L 2.734375 0 L 0.765625 0 L 0.765625 -7.71875 L 4.21875 -7.71875 C 5.238281 -7.71875 6.023438 -7.484375 6.578125 -7.015625 C 7.140625 -6.546875 7.421875 -5.878906 7.421875 -5.015625 C 7.421875 -3.828125 6.957031 -3.003906 6.03125 -2.546875 L 7.640625 0 Z M 2.734375 -3.71875 L 4.21875 -3.71875 C 4.644531 -3.71875 4.972656 -3.820312 5.203125 -4.03125 C 5.441406 -4.238281 5.5625 -4.546875 5.5625 -4.953125 C 5.5625 -5.347656 5.441406 -5.648438 5.203125 -5.859375 C 4.972656 -6.066406 4.644531 -6.171875 4.21875 -6.171875 L 2.734375 -6.171875 Z M 2.734375 -3.71875 "/></g></g></g><g fill="#fcfff9" fill-opacity="1"><g transform="translate(76.767034, 133.16653)"><g><path d="M 6.8125 -6.171875 L 2.734375 -6.171875 L 2.734375 -4.640625 L 6.40625 -4.640625 L 6.40625 -3.09375 L 2.734375 -3.09375 L 2.734375 -1.546875 L 6.921875 -1.546875 L 6.921875 0 L 0.765625 0 L 0.765625 -7.71875 L 6.8125 -7.71875 Z M 6.8125 -6.171875 "/></g></g></g><g fill="#fcfff9" fill-opacity="1"><g transform="translate(85.72291, 133.16653)"><g><path d="M 3.734375 -7.796875 C 4.890625 -7.796875 5.90625 -7.507812 6.78125 -6.9375 L 6.03125 -5.40625 C 5.632812 -5.644531 5.203125 -5.835938 4.734375 -5.984375 C 4.273438 -6.140625 3.882812 -6.21875 3.5625 -6.21875 C 3 -6.21875 2.71875 -6.03125 2.71875 -5.65625 C 2.71875 -5.40625 2.859375 -5.207031 3.140625 -5.0625 C 3.421875 -4.914062 3.757812 -4.789062 4.15625 -4.6875 C 4.5625 -4.582031 4.960938 -4.453125 5.359375 -4.296875 C 5.753906 -4.148438 6.09375 -3.90625 6.375 -3.5625 C 6.65625 -3.226562 6.796875 -2.804688 6.796875 -2.296875 C 6.796875 -1.546875 6.503906 -0.960938 5.921875 -0.546875 C 5.347656 -0.140625 4.613281 0.0625 3.71875 0.0625 C 3.070312 0.0625 2.4375 -0.046875 1.8125 -0.265625 C 1.1875 -0.484375 0.644531 -0.785156 0.1875 -1.171875 L 0.953125 -2.671875 C 1.335938 -2.335938 1.796875 -2.0625 2.328125 -1.84375 C 2.859375 -1.625 3.328125 -1.515625 3.734375 -1.515625 C 4.046875 -1.515625 4.289062 -1.570312 4.46875 -1.6875 C 4.644531 -1.800781 4.734375 -1.96875 4.734375 -2.1875 C 4.734375 -2.40625 4.628906 -2.582031 4.421875 -2.71875 C 4.222656 -2.863281 3.972656 -2.972656 3.671875 -3.046875 C 3.378906 -3.117188 3.054688 -3.210938 2.703125 -3.328125 C 2.347656 -3.441406 2.019531 -3.566406 1.71875 -3.703125 C 1.414062 -3.847656 1.160156 -4.070312 0.953125 -4.375 C 0.753906 -4.675781 0.65625 -5.039062 0.65625 -5.46875 C 0.65625 -6.175781 0.9375 -6.738281 1.5 -7.15625 C 2.0625 -7.582031 2.804688 -7.796875 3.734375 -7.796875 Z M 3.734375 -7.796875 "/></g></g></g><g fill="#fcfff9" fill-opacity="1"><g transform="translate(94.352227, 133.16653)"><g/></g></g><g fill="#fcfff9" fill-opacity="1"><g transform="translate(21.9648, 148.144853)"><g><path d="M 4.390625 -7.78125 C 4.960938 -7.78125 5.523438 -7.660156 6.078125 -7.421875 C 6.628906 -7.191406 7.097656 -6.878906 7.484375 -6.484375 L 6.359375 -5.140625 C 6.109375 -5.441406 5.804688 -5.679688 5.453125 -5.859375 C 5.109375 -6.046875 4.765625 -6.140625 4.421875 -6.140625 C 3.804688 -6.140625 3.289062 -5.921875 2.875 -5.484375 C 2.46875 -5.054688 2.265625 -4.53125 2.265625 -3.90625 C 2.265625 -3.257812 2.46875 -2.71875 2.875 -2.28125 C 3.289062 -1.84375 3.804688 -1.625 4.421875 -1.625 C 4.742188 -1.625 5.078125 -1.703125 5.421875 -1.859375 C 5.773438 -2.023438 6.085938 -2.25 6.359375 -2.53125 L 7.5 -1.328125 C 7.082031 -0.898438 6.585938 -0.554688 6.015625 -0.296875 C 5.453125 -0.0351562 4.882812 0.09375 4.3125 0.09375 C 3.15625 0.09375 2.191406 -0.285156 1.421875 -1.046875 C 0.648438 -1.804688 0.265625 -2.75 0.265625 -3.875 C 0.265625 -4.988281 0.65625 -5.914062 1.4375 -6.65625 C 2.226562 -7.40625 3.210938 -7.78125 4.390625 -7.78125 Z M 4.390625 -7.78125 "/></g></g></g><g fill="#fcfff9" fill-opacity="1"><g transform="translate(31.118669, 148.144853)"><g><path d="M 4.421875 -7.78125 C 5.617188 -7.78125 6.613281 -7.40625 7.40625 -6.65625 C 8.207031 -5.914062 8.609375 -4.984375 8.609375 -3.859375 C 8.609375 -2.742188 8.207031 -1.804688 7.40625 -1.046875 C 6.613281 -0.285156 5.617188 0.09375 4.421875 0.09375 C 3.234375 0.09375 2.242188 -0.28125 1.453125 -1.03125 C 0.660156 -1.789062 0.265625 -2.734375 0.265625 -3.859375 C 0.265625 -4.984375 0.660156 -5.914062 1.453125 -6.65625 C 2.242188 -7.40625 3.234375 -7.78125 4.421875 -7.78125 Z M 4.453125 -6.140625 C 3.847656 -6.140625 3.332031 -5.921875 2.90625 -5.484375 C 2.476562 -5.046875 2.265625 -4.503906 2.265625 -3.859375 C 2.265625 -3.210938 2.476562 -2.664062 2.90625 -2.21875 C 3.34375 -1.769531 3.859375 -1.546875 4.453125 -1.546875 C 5.046875 -1.546875 5.550781 -1.769531 5.96875 -2.21875 C 6.382812 -2.664062 6.59375 -3.210938 6.59375 -3.859375 C 6.59375 -4.503906 6.382812 -5.046875 5.96875 -5.484375 C 5.550781 -5.921875 5.046875 -6.140625 4.453125 -6.140625 Z M 4.453125 -6.140625 "/></g></g></g><g fill="#fcfff9" fill-opacity="1"><g transform="translate(41.515512, 148.144853)"><g><path d="M 7.890625 0 L 6.15625 0 L 2.609375 -4.75 L 2.609375 0 L 0.765625 0 L 0.765625 -7.71875 L 2.5 -7.71875 L 6.0625 -2.953125 L 6.0625 -7.71875 L 7.890625 -7.71875 Z M 7.890625 0 "/></g></g></g><g fill="#fcfff9" fill-opacity="1"><g transform="translate(51.703357, 148.144853)"><g><path d="M 3.734375 -7.796875 C 4.890625 -7.796875 5.90625 -7.507812 6.78125 -6.9375 L 6.03125 -5.40625 C 5.632812 -5.644531 5.203125 -5.835938 4.734375 -5.984375 C 4.273438 -6.140625 3.882812 -6.21875 3.5625 -6.21875 C 3 -6.21875 2.71875 -6.03125 2.71875 -5.65625 C 2.71875 -5.40625 2.859375 -5.207031 3.140625 -5.0625 C 3.421875 -4.914062 3.757812 -4.789062 4.15625 -4.6875 C 4.5625 -4.582031 4.960938 -4.453125 5.359375 -4.296875 C 5.753906 -4.148438 6.09375 -3.90625 6.375 -3.5625 C 6.65625 -3.226562 6.796875 -2.804688 6.796875 -2.296875 C 6.796875 -1.546875 6.503906 -0.960938 5.921875 -0.546875 C 5.347656 -0.140625 4.613281 0.0625 3.71875 0.0625 C 3.070312 0.0625 2.4375 -0.046875 1.8125 -0.265625 C 1.1875 -0.484375 0.644531 -0.785156 0.1875 -1.171875 L 0.953125 -2.671875 C 1.335938 -2.335938 1.796875 -2.0625 2.328125 -1.84375 C 2.859375 -1.625 3.328125 -1.515625 3.734375 -1.515625 C 4.046875 -1.515625 4.289062 -1.570312 4.46875 -1.6875 C 4.644531 -1.800781 4.734375 -1.96875 4.734375 -2.1875 C 4.734375 -2.40625 4.628906 -2.582031 4.421875 -2.71875 C 4.222656 -2.863281 3.972656 -2.972656 3.671875 -3.046875 C 3.378906 -3.117188 3.054688 -3.210938 2.703125 -3.328125 C 2.347656 -3.441406 2.019531 -3.566406 1.71875 -3.703125 C 1.414062 -3.847656 1.160156 -4.070312 0.953125 -4.375 C 0.753906 -4.675781 0.65625 -5.039062 0.65625 -5.46875 C 0.65625 -6.175781 0.9375 -6.738281 1.5 -7.15625 C 2.0625 -7.582031 2.804688 -7.796875 3.734375 -7.796875 Z M 3.734375 -7.796875 "/></g></g></g><g fill="#fcfff9" fill-opacity="1"><g transform="translate(60.329238, 148.144853)"><g><path d="M 4.421875 -7.78125 C 5.617188 -7.78125 6.613281 -7.40625 7.40625 -6.65625 C 8.207031 -5.914062 8.609375 -4.984375 8.609375 -3.859375 C 8.609375 -2.742188 8.207031 -1.804688 7.40625 -1.046875 C 6.613281 -0.285156 5.617188 0.09375 4.421875 0.09375 C 3.234375 0.09375 2.242188 -0.28125 1.453125 -1.03125 C 0.660156 -1.789062 0.265625 -2.734375 0.265625 -3.859375 C 0.265625 -4.984375 0.660156 -5.914062 1.453125 -6.65625 C 2.242188 -7.40625 3.234375 -7.78125 4.421875 -7.78125 Z M 4.453125 -6.140625 C 3.847656 -6.140625 3.332031 -5.921875 2.90625 -5.484375 C 2.476562 -5.046875 2.265625 -4.503906 2.265625 -3.859375 C 2.265625 -3.210938 2.476562 -2.664062 2.90625 -2.21875 C 3.34375 -1.769531 3.859375 -1.546875 4.453125 -1.546875 C 5.046875 -1.546875 5.550781 -1.769531 5.96875 -2.21875 C 6.382812 -2.664062 6.59375 -3.210938 6.59375 -3.859375 C 6.59375 -4.503906 6.382812 -5.046875 5.96875 -5.484375 C 5.550781 -5.921875 5.046875 -6.140625 4.453125 -6.140625 Z M 4.453125 -6.140625 "/></g></g></g><g fill="#fcfff9" fill-opacity="1"><g transform="translate(70.72608, 148.144853)"><g><path d="M 2.734375 -1.640625 L 6 -1.640625 L 6 0 L 0.765625 0 L 0.765625 -7.71875 L 2.734375 -7.71875 Z M 2.734375 -1.640625 "/></g></g></g><g fill="#fcfff9" fill-opacity="1"><g transform="translate(78.427989, 148.144853)"><g><path d="M 2.734375 0 L 0.765625 0 L 0.765625 -7.71875 L 2.734375 -7.71875 Z M 2.734375 0 "/></g></g></g><g fill="#fcfff9" fill-opacity="1"><g transform="translate(83.467963, 148.144853)"><g><path d="M 0.765625 -7.71875 L 4.09375 -7.71875 C 5.300781 -7.71875 6.285156 -7.359375 7.046875 -6.640625 C 7.804688 -5.929688 8.1875 -5.003906 8.1875 -3.859375 C 8.1875 -2.710938 7.800781 -1.78125 7.03125 -1.0625 C 6.257812 -0.351562 5.253906 0 4.015625 0 L 0.765625 0 Z M 2.734375 -6.140625 L 2.734375 -1.5625 L 4.125 -1.5625 C 4.726562 -1.5625 5.222656 -1.769531 5.609375 -2.1875 C 5.992188 -2.613281 6.1875 -3.164062 6.1875 -3.84375 C 6.1875 -4.519531 5.984375 -5.070312 5.578125 -5.5 C 5.179688 -5.925781 4.671875 -6.140625 4.046875 -6.140625 Z M 2.734375 -6.140625 "/></g></g></g><g fill="#fcfff9" fill-opacity="1"><g transform="translate(93.446811, 148.144853)"><g><path d="M 5.890625 -1.421875 L 2.515625 -1.421875 L 1.953125 0 L -0.0625 0 L 3.265625 -7.71875 L 5.28125 -7.71875 L 8.53125 0 L 6.4375 0 Z M 5.328125 -2.90625 L 4.21875 -5.765625 L 3.09375 -2.90625 Z M 5.328125 -2.90625 "/></g></g></g><g fill="#fcfff9" fill-opacity="1"><g transform="translate(103.458662, 148.144853)"><g><path d="M 6.671875 -6.140625 L 4.34375 -6.140625 L 4.34375 0 L 2.375 0 L 2.375 -6.140625 L 0.078125 -6.140625 L 0.078125 -7.71875 L 6.671875 -7.71875 Z M 6.671875 -6.140625 "/></g></g></g><g fill="#fcfff9" fill-opacity="1"><g transform="translate(111.72156, 148.144853)"><g><path d="M 6.8125 -6.171875 L 2.734375 -6.171875 L 2.734375 -4.640625 L 6.40625 -4.640625 L 6.40625 -3.09375 L 2.734375 -3.09375 L 2.734375 -1.546875 L 6.921875 -1.546875 L 6.921875 0 L 0.765625 0 L 0.765625 -7.71875 L 6.8125 -7.71875 Z M 6.8125 -6.171875 "/></g></g></g><g fill="#fcfff9" fill-opacity="1"><g transform="translate(120.677437, 148.144853)"><g><path d="M 0.765625 -7.71875 L 4.09375 -7.71875 C 5.300781 -7.71875 6.285156 -7.359375 7.046875 -6.640625 C 7.804688 -5.929688 8.1875 -5.003906 8.1875 -3.859375 C 8.1875 -2.710938 7.800781 -1.78125 7.03125 -1.0625 C 6.257812 -0.351562 5.253906 0 4.015625 0 L 0.765625 0 Z M 2.734375 -6.140625 L 2.734375 -1.5625 L 4.125 -1.5625 C 4.726562 -1.5625 5.222656 -1.769531 5.609375 -2.1875 C 5.992188 -2.613281 6.1875 -3.164062 6.1875 -3.84375 C 6.1875 -4.519531 5.984375 -5.070312 5.578125 -5.5 C 5.179688 -5.925781 4.671875 -6.140625 4.046875 -6.140625 Z M 2.734375 -6.140625 "/></g></g></g><g clip-path="url(#c521f75421)"><path fill="#00d300" d="M 270.660156 149.703125 L 263.515625 142.9375 L 267.558594 139.246094 L 270.460938 143.078125 C 270.460938 143.078125 279.789062 133.550781 291.945312 130.984375 C 278.082031 137.734375 270.660156 149.703125 270.660156 149.703125 Z M 270.660156 149.703125 " fill-opacity="1" fill-rule="nonzero"/></g><g clip-path="url(#dbbc05b4ee)"><path fill="#8f0000" d="M 423.28125 128.492188 L 423.652344 128.269531 L 423.800781 128.417969 C 423.902344 128.515625 424.148438 129.3125 424.546875 130.800781 C 424.945312 132.289062 425.515625 133.703125 426.261719 135.042969 C 427.003906 136.382812 427.476562 137.054688 427.675781 137.054688 L 427.972656 137.054688 L 428.570312 136.308594 C 428.96875 135.8125 429.339844 135.339844 429.6875 134.894531 C 430.035156 134.449219 430.359375 134.027344 430.65625 133.628906 C 430.953125 133.230469 431.175781 132.960938 431.324219 132.808594 L 431.550781 132.585938 L 432.292969 132.4375 C 432.789062 132.339844 433.734375 132.414062 435.125 132.660156 L 437.210938 133.035156 L 436.988281 133.925781 C 436.839844 134.523438 436.515625 135.117188 436.019531 135.714844 C 435.523438 136.308594 435.125 136.804688 434.828125 137.203125 C 434.527344 137.601562 434.082031 138.144531 433.484375 138.839844 C 432.890625 139.535156 432.441406 140.082031 432.144531 140.480469 C 431.847656 140.875 431.699219 141.222656 431.699219 141.523438 L 431.699219 141.96875 L 432.667969 142.789062 C 433.3125 143.332031 434.28125 143.902344 435.570312 144.5 C 436.863281 145.09375 438.699219 145.691406 441.082031 146.285156 L 444.660156 147.179688 L 443.019531 148.074219 C 441.929688 148.667969 441.082031 149.066406 440.488281 149.265625 C 439.890625 149.464844 439.046875 149.511719 437.957031 149.414062 C 436.863281 149.316406 435.570312 149.066406 434.082031 148.667969 C 432.59375 148.273438 431.550781 147.925781 430.953125 147.628906 C 430.359375 147.328125 429.761719 146.980469 429.164062 146.585938 C 428.570312 146.1875 428.121094 145.988281 427.824219 145.988281 L 427.378906 145.988281 L 425.589844 147.628906 C 424.398438 148.71875 423.503906 149.464844 422.910156 149.859375 C 422.3125 150.257812 421.765625 150.65625 421.269531 151.050781 C 420.773438 151.449219 420.078125 151.847656 419.183594 152.242188 C 418.289062 152.640625 417.695312 152.839844 417.394531 152.839844 L 416.949219 152.839844 L 417.171875 152.464844 C 417.320312 152.21875 417.59375 151.796875 417.992188 151.199219 C 418.390625 150.605469 418.785156 150.058594 419.183594 149.5625 C 419.582031 149.066406 420.027344 148.421875 420.523438 147.628906 C 421.023438 146.832031 421.519531 146.136719 422.015625 145.542969 C 422.511719 144.945312 422.957031 144.351562 423.355469 143.753906 L 423.953125 142.863281 L 423.800781 142.265625 C 423.703125 141.867188 423.503906 141.472656 423.207031 141.074219 C 422.910156 140.679688 422.363281 139.734375 421.566406 138.246094 C 420.773438 136.757812 420.175781 135.515625 419.78125 134.523438 C 419.382812 133.53125 419.183594 132.882812 419.183594 132.585938 L 419.183594 132.140625 L 421.046875 130.425781 C 422.289062 129.285156 423.03125 128.640625 423.28125 128.492188 Z M 423.28125 128.492188 " fill-opacity="1" fill-rule="evenodd"/></g><g clip-path="url(#ccabbe1679)"><path fill="#8547ff" d="M 5.210938 -77.527344 L 502.492188 -77.527344 L 502.492188 419.753906 L 5.210938 419.753906 Z M 5.210938 -77.527344 " fill-opacity="1" fill-rule="nonzero"/></g><g fill="#fcfff9" fill-opacity="1"><g transform="translate(44.611403, 25.687599)"><g><path d="M 4.390625 -7.78125 C 4.960938 -7.78125 5.523438 -7.660156 6.078125 -7.421875 C 6.628906 -7.191406 7.097656 -6.878906 7.484375 -6.484375 L 6.359375 -5.140625 C 6.109375 -5.441406 5.804688 -5.679688 5.453125 -5.859375 C 5.109375 -6.046875 4.765625 -6.140625 4.421875 -6.140625 C 3.804688 -6.140625 3.289062 -5.921875 2.875 -5.484375 C 2.46875 -5.054688 2.265625 -4.53125 2.265625 -3.90625 C 2.265625 -3.257812 2.46875 -2.71875 2.875 -2.28125 C 3.289062 -1.84375 3.804688 -1.625 4.421875 -1.625 C 4.742188 -1.625 5.078125 -1.703125 5.421875 -1.859375 C 5.773438 -2.023438 6.085938 -2.25 6.359375 -2.53125 L 7.5 -1.328125 C 7.082031 -0.898438 6.585938 -0.554688 6.015625 -0.296875 C 5.453125 -0.0351562 4.882812 0.09375 4.3125 0.09375 C 3.15625 0.09375 2.191406 -0.285156 1.421875 -1.046875 C 0.648438 -1.804688 0.265625 -2.75 0.265625 -3.875 C 0.265625 -4.988281 0.65625 -5.914062 1.4375 -6.65625 C 2.226562 -7.40625 3.210938 -7.78125 4.390625 -7.78125 Z M 4.390625 -7.78125 "/></g></g></g><g fill="#fcfff9" fill-opacity="1"><g transform="translate(53.765271, 25.687599)"><g><path d="M 5.421875 0 L 4.28125 -2.171875 L 2.734375 -2.171875 L 2.734375 0 L 0.765625 0 L 0.765625 -7.71875 L 4.21875 -7.71875 C 5.238281 -7.71875 6.023438 -7.484375 6.578125 -7.015625 C 7.140625 -6.546875 7.421875 -5.878906 7.421875 -5.015625 C 7.421875 -3.828125 6.957031 -3.003906 6.03125 -2.546875 L 7.640625 0 Z M 2.734375 -3.71875 L 4.21875 -3.71875 C 4.644531 -3.71875 4.972656 -3.820312 5.203125 -4.03125 C 5.441406 -4.238281 5.5625 -4.546875 5.5625 -4.953125 C 5.5625 -5.347656 5.441406 -5.648438 5.203125 -5.859375 C 4.972656 -6.066406 4.644531 -6.171875 4.21875 -6.171875 L 2.734375 -6.171875 Z M 2.734375 -3.71875 "/></g></g></g><g fill="#fcfff9" fill-opacity="1"><g transform="translate(63.271131, 25.687599)"><g><path d="M 2.734375 0 L 0.765625 0 L 0.765625 -7.71875 L 2.734375 -7.71875 Z M 2.734375 0 "/></g></g></g><g fill="#fcfff9" fill-opacity="1"><g transform="translate(68.311104, 25.687599)"><g><path d="M 6.671875 -6.140625 L 4.34375 -6.140625 L 4.34375 0 L 2.375 0 L 2.375 -6.140625 L 0.078125 -6.140625 L 0.078125 -7.71875 L 6.671875 -7.71875 Z M 6.671875 -6.140625 "/></g></g></g><g fill="#fcfff9" fill-opacity="1"><g transform="translate(76.573999, 25.687599)"><g><path d="M 6.8125 -6.171875 L 2.734375 -6.171875 L 2.734375 -4.640625 L 6.40625 -4.640625 L 6.40625 -3.09375 L 2.734375 -3.09375 L 2.734375 -1.546875 L 6.921875 -1.546875 L 6.921875 0 L 0.765625 0 L 0.765625 -7.71875 L 6.8125 -7.71875 Z M 6.8125 -6.171875 "/></g></g></g><g fill="#fcfff9" fill-opacity="1"><g transform="translate(85.529873, 25.687599)"><g><path d="M 5.421875 0 L 4.28125 -2.171875 L 2.734375 -2.171875 L 2.734375 0 L 0.765625 0 L 0.765625 -7.71875 L 4.21875 -7.71875 C 5.238281 -7.71875 6.023438 -7.484375 6.578125 -7.015625 C 7.140625 -6.546875 7.421875 -5.878906 7.421875 -5.015625 C 7.421875 -3.828125 6.957031 -3.003906 6.03125 -2.546875 L 7.640625 0 Z M 2.734375 -3.71875 L 4.21875 -3.71875 C 4.644531 -3.71875 4.972656 -3.820312 5.203125 -4.03125 C 5.441406 -4.238281 5.5625 -4.546875 5.5625 -4.953125 C 5.5625 -5.347656 5.441406 -5.648438 5.203125 -5.859375 C 4.972656 -6.066406 4.644531 -6.171875 4.21875 -6.171875 L 2.734375 -6.171875 Z M 2.734375 -3.71875 "/></g></g></g><g fill="#fcfff9" fill-opacity="1"><g transform="translate(95.035735, 25.687599)"><g><path d="M 2.734375 0 L 0.765625 0 L 0.765625 -7.71875 L 2.734375 -7.71875 Z M 2.734375 0 "/></g></g></g><g fill="#fcfff9" fill-opacity="1"><g transform="translate(100.075709, 25.687599)"><g><path d="M 5.890625 -1.421875 L 2.515625 -1.421875 L 1.953125 0 L -0.0625 0 L 3.265625 -7.71875 L 5.28125 -7.71875 L 8.53125 0 L 6.4375 0 Z M 5.328125 -2.90625 L 4.21875 -5.765625 L 3.09375 -2.90625 Z M 5.328125 -2.90625 "/></g></g></g><g fill="#fcfff9" fill-opacity="1"><g transform="translate(200.952956, 25.047446)"><g><path d="M 4.390625 -7.78125 C 4.960938 -7.78125 5.523438 -7.660156 6.078125 -7.421875 C 6.628906 -7.191406 7.097656 -6.878906 7.484375 -6.484375 L 6.359375 -5.140625 C 6.109375 -5.441406 5.804688 -5.679688 5.453125 -5.859375 C 5.109375 -6.046875 4.765625 -6.140625 4.421875 -6.140625 C 3.804688 -6.140625 3.289062 -5.921875 2.875 -5.484375 C 2.46875 -5.054688 2.265625 -4.53125 2.265625 -3.90625 C 2.265625 -3.257812 2.46875 -2.71875 2.875 -2.28125 C 3.289062 -1.84375 3.804688 -1.625 4.421875 -1.625 C 4.742188 -1.625 5.078125 -1.703125 5.421875 -1.859375 C 5.773438 -2.023438 6.085938 -2.25 6.359375 -2.53125 L 7.5 -1.328125 C 7.082031 -0.898438 6.585938 -0.554688 6.015625 -0.296875 C 5.453125 -0.0351562 4.882812 0.09375 4.3125 0.09375 C 3.15625 0.09375 2.191406 -0.285156 1.421875 -1.046875 C 0.648438 -1.804688 0.265625 -2.75 0.265625 -3.875 C 0.265625 -4.988281 0.65625 -5.914062 1.4375 -6.65625 C 2.226562 -7.40625 3.210938 -7.78125 4.390625 -7.78125 Z M 4.390625 -7.78125 "/></g></g></g><g fill="#fcfff9" fill-opacity="1"><g transform="translate(210.106824, 25.047446)"><g><path d="M 5.421875 0 L 4.28125 -2.171875 L 2.734375 -2.171875 L 2.734375 0 L 0.765625 0 L 0.765625 -7.71875 L 4.21875 -7.71875 C 5.238281 -7.71875 6.023438 -7.484375 6.578125 -7.015625 C 7.140625 -6.546875 7.421875 -5.878906 7.421875 -5.015625 C 7.421875 -3.828125 6.957031 -3.003906 6.03125 -2.546875 L 7.640625 0 Z M 2.734375 -3.71875 L 4.21875 -3.71875 C 4.644531 -3.71875 4.972656 -3.820312 5.203125 -4.03125 C 5.441406 -4.238281 5.5625 -4.546875 5.5625 -4.953125 C 5.5625 -5.347656 5.441406 -5.648438 5.203125 -5.859375 C 4.972656 -6.066406 4.644531 -6.171875 4.21875 -6.171875 L 2.734375 -6.171875 Z M 2.734375 -3.71875 "/></g></g></g><g fill="#fcfff9" fill-opacity="1"><g transform="translate(219.612684, 25.047446)"><g><path d="M 6.8125 -6.171875 L 2.734375 -6.171875 L 2.734375 -4.640625 L 6.40625 -4.640625 L 6.40625 -3.09375 L 2.734375 -3.09375 L 2.734375 -1.546875 L 6.921875 -1.546875 L 6.921875 0 L 0.765625 0 L 0.765625 -7.71875 L 6.8125 -7.71875 Z M 6.8125 -6.171875 "/></g></g></g><g fill="#fcfff9" fill-opacity="1"><g transform="translate(228.568559, 25.047446)"><g><path d="M 5.890625 -1.421875 L 2.515625 -1.421875 L 1.953125 0 L -0.0625 0 L 3.265625 -7.71875 L 5.28125 -7.71875 L 8.53125 0 L 6.4375 0 Z M 5.328125 -2.90625 L 4.21875 -5.765625 L 3.09375 -2.90625 Z M 5.328125 -2.90625 "/></g></g></g><g fill="#fcfff9" fill-opacity="1"><g transform="translate(238.580407, 25.047446)"><g><path d="M 6.671875 -6.140625 L 4.34375 -6.140625 L 4.34375 0 L 2.375 0 L 2.375 -6.140625 L 0.078125 -6.140625 L 0.078125 -7.71875 L 6.671875 -7.71875 Z M 6.671875 -6.140625 "/></g></g></g><g fill="#fcfff9" fill-opacity="1"><g transform="translate(246.843303, 25.047446)"><g><path d="M 2.734375 0 L 0.765625 0 L 0.765625 -7.71875 L 2.734375 -7.71875 Z M 2.734375 0 "/></g></g></g><g fill="#fcfff9" fill-opacity="1"><g transform="translate(251.883277, 25.047446)"><g><path d="M 4.421875 -7.78125 C 5.617188 -7.78125 6.613281 -7.40625 7.40625 -6.65625 C 8.207031 -5.914062 8.609375 -4.984375 8.609375 -3.859375 C 8.609375 -2.742188 8.207031 -1.804688 7.40625 -1.046875 C 6.613281 -0.285156 5.617188 0.09375 4.421875 0.09375 C 3.234375 0.09375 2.242188 -0.28125 1.453125 -1.03125 C 0.660156 -1.789062 0.265625 -2.734375 0.265625 -3.859375 C 0.265625 -4.984375 0.660156 -5.914062 1.453125 -6.65625 C 2.242188 -7.40625 3.234375 -7.78125 4.421875 -7.78125 Z M 4.453125 -6.140625 C 3.847656 -6.140625 3.332031 -5.921875 2.90625 -5.484375 C 2.476562 -5.046875 2.265625 -4.503906 2.265625 -3.859375 C 2.265625 -3.210938 2.476562 -2.664062 2.90625 -2.21875 C 3.34375 -1.769531 3.859375 -1.546875 4.453125 -1.546875 C 5.046875 -1.546875 5.550781 -1.769531 5.96875 -2.21875 C 6.382812 -2.664062 6.59375 -3.210938 6.59375 -3.859375 C 6.59375 -4.503906 6.382812 -5.046875 5.96875 -5.484375 C 5.550781 -5.921875 5.046875 -6.140625 4.453125 -6.140625 Z M 4.453125 -6.140625 "/></g></g></g><g fill="#fcfff9" fill-opacity="1"><g transform="translate(262.280122, 25.047446)"><g><path d="M 7.890625 0 L 6.15625 0 L 2.609375 -4.75 L 2.609375 0 L 0.765625 0 L 0.765625 -7.71875 L 2.5 -7.71875 L 6.0625 -2.953125 L 6.0625 -7.71875 L 7.890625 -7.71875 Z M 7.890625 0 "/></g></g></g><g fill="#fcfff9" fill-opacity="1"><g transform="translate(272.467969, 25.047446)"><g><path d="M 7.890625 0 L 6.15625 0 L 2.609375 -4.75 L 2.609375 0 L 0.765625 0 L 0.765625 -7.71875 L 2.5 -7.71875 L 6.0625 -2.953125 L 6.0625 -7.71875 L 7.890625 -7.71875 Z M 7.890625 0 "/></g></g></g><g fill="#fcfff9" fill-opacity="1"><g transform="translate(282.655816, 25.047446)"><g><path d="M 6.8125 -6.171875 L 2.734375 -6.171875 L 2.734375 -4.640625 L 6.40625 -4.640625 L 6.40625 -3.09375 L 2.734375 -3.09375 L 2.734375 -1.546875 L 6.921875 -1.546875 L 6.921875 0 L 0.765625 0 L 0.765625 -7.71875 L 6.8125 -7.71875 Z M 6.8125 -6.171875 "/></g></g></g><g fill="#fcfff9" fill-opacity="1"><g transform="translate(291.611692, 25.047446)"><g><path d="M 6.671875 -6.140625 L 4.34375 -6.140625 L 4.34375 0 L 2.375 0 L 2.375 -6.140625 L 0.078125 -6.140625 L 0.078125 -7.71875 L 6.671875 -7.71875 Z M 6.671875 -6.140625 "/></g></g></g><g fill="#fcfff9" fill-opacity="1"><g transform="translate(299.874591, 25.047446)"><g><path d="M 9.4375 0 L 7.421875 0 L 6 -5.328125 L 4.53125 0 L 2.515625 0 L -0.015625 -7.71875 L 2.078125 -7.71875 L 3.59375 -2.03125 L 5.0625 -7.71875 L 6.984375 -7.71875 L 8.5 -2.03125 L 9.984375 -7.71875 L 11.984375 -7.71875 Z M 9.4375 0 "/></g></g></g><g fill="#fcfff9" fill-opacity="1"><g transform="translate(313.30736, 25.047446)"><g><path d="M 4.421875 -7.78125 C 5.617188 -7.78125 6.613281 -7.40625 7.40625 -6.65625 C 8.207031 -5.914062 8.609375 -4.984375 8.609375 -3.859375 C 8.609375 -2.742188 8.207031 -1.804688 7.40625 -1.046875 C 6.613281 -0.285156 5.617188 0.09375 4.421875 0.09375 C 3.234375 0.09375 2.242188 -0.28125 1.453125 -1.03125 C 0.660156 -1.789062 0.265625 -2.734375 0.265625 -3.859375 C 0.265625 -4.984375 0.660156 -5.914062 1.453125 -6.65625 C 2.242188 -7.40625 3.234375 -7.78125 4.421875 -7.78125 Z M 4.453125 -6.140625 C 3.847656 -6.140625 3.332031 -5.921875 2.90625 -5.484375 C 2.476562 -5.046875 2.265625 -4.503906 2.265625 -3.859375 C 2.265625 -3.210938 2.476562 -2.664062 2.90625 -2.21875 C 3.34375 -1.769531 3.859375 -1.546875 4.453125 -1.546875 C 5.046875 -1.546875 5.550781 -1.769531 5.96875 -2.21875 C 6.382812 -2.664062 6.59375 -3.210938 6.59375 -3.859375 C 6.59375 -4.503906 6.382812 -5.046875 5.96875 -5.484375 C 5.550781 -5.921875 5.046875 -6.140625 4.453125 -6.140625 Z M 4.453125 -6.140625 "/></g></g></g><g fill="#fcfff9" fill-opacity="1"><g transform="translate(323.704205, 25.047446)"><g><path d="M 5.421875 0 L 4.28125 -2.171875 L 2.734375 -2.171875 L 2.734375 0 L 0.765625 0 L 0.765625 -7.71875 L 4.21875 -7.71875 C 5.238281 -7.71875 6.023438 -7.484375 6.578125 -7.015625 C 7.140625 -6.546875 7.421875 -5.878906 7.421875 -5.015625 C 7.421875 -3.828125 6.957031 -3.003906 6.03125 -2.546875 L 7.640625 0 Z M 2.734375 -3.71875 L 4.21875 -3.71875 C 4.644531 -3.71875 4.972656 -3.820312 5.203125 -4.03125 C 5.441406 -4.238281 5.5625 -4.546875 5.5625 -4.953125 C 5.5625 -5.347656 5.441406 -5.648438 5.203125 -5.859375 C 4.972656 -6.066406 4.644531 -6.171875 4.21875 -6.171875 L 2.734375 -6.171875 Z M 2.734375 -3.71875 "/></g></g></g><g fill="#fcfff9" fill-opacity="1"><g transform="translate(333.210067, 25.047446)"><g><path d="M 5.796875 0 L 3.75 -3.03125 L 2.734375 -1.890625 L 2.734375 0 L 0.765625 0 L 0.765625 -7.71875 L 2.734375 -7.71875 L 2.734375 -4.375 L 5.6875 -7.71875 L 7.953125 -7.71875 L 5.09375 -4.515625 L 8.140625 0 Z M 5.796875 0 "/></g></g></g><g fill="#fcfff9" fill-opacity="1"><g transform="translate(364.678228, 25.047446)"><g><path d="M 4.421875 -7.78125 C 5.617188 -7.78125 6.613281 -7.40625 7.40625 -6.65625 C 8.207031 -5.914062 8.609375 -4.984375 8.609375 -3.859375 C 8.609375 -2.742188 8.207031 -1.804688 7.40625 -1.046875 C 6.613281 -0.285156 5.617188 0.09375 4.421875 0.09375 C 3.234375 0.09375 2.242188 -0.28125 1.453125 -1.03125 C 0.660156 -1.789062 0.265625 -2.734375 0.265625 -3.859375 C 0.265625 -4.984375 0.660156 -5.914062 1.453125 -6.65625 C 2.242188 -7.40625 3.234375 -7.78125 4.421875 -7.78125 Z M 4.453125 -6.140625 C 3.847656 -6.140625 3.332031 -5.921875 2.90625 -5.484375 C 2.476562 -5.046875 2.265625 -4.503906 2.265625 -3.859375 C 2.265625 -3.210938 2.476562 -2.664062 2.90625 -2.21875 C 3.34375 -1.769531 3.859375 -1.546875 4.453125 -1.546875 C 5.046875 -1.546875 5.550781 -1.769531 5.96875 -2.21875 C 6.382812 -2.664062 6.59375 -3.210938 6.59375 -3.859375 C 6.59375 -4.503906 6.382812 -5.046875 5.96875 -5.484375 C 5.550781 -5.921875 5.046875 -6.140625 4.453125 -6.140625 Z M 4.453125 -6.140625 "/></g></g></g><g fill="#fcfff9" fill-opacity="1"><g transform="translate(375.075071, 25.047446)"><g><path d="M 6.671875 -6.140625 L 4.34375 -6.140625 L 4.34375 0 L 2.375 0 L 2.375 -6.140625 L 0.078125 -6.140625 L 0.078125 -7.71875 L 6.671875 -7.71875 Z M 6.671875 -6.140625 "/></g></g></g><g fill="#fcfff9" fill-opacity="1"><g transform="translate(383.337967, 25.047446)"><g><path d="M 7.890625 0 L 5.921875 0 L 5.921875 -3 L 2.734375 -3 L 2.734375 0 L 0.765625 0 L 0.765625 -7.71875 L 2.734375 -7.71875 L 2.734375 -4.53125 L 5.921875 -4.53125 L 5.921875 -7.71875 L 7.890625 -7.71875 Z M 7.890625 0 "/></g></g></g><g fill="#fcfff9" fill-opacity="1"><g transform="translate(393.525813, 25.047446)"><g><path d="M 6.8125 -6.171875 L 2.734375 -6.171875 L 2.734375 -4.640625 L 6.40625 -4.640625 L 6.40625 -3.09375 L 2.734375 -3.09375 L 2.734375 -1.546875 L 6.921875 -1.546875 L 6.921875 0 L 0.765625 0 L 0.765625 -7.71875 L 6.8125 -7.71875 Z M 6.8125 -6.171875 "/></g></g></g><g fill="#fcfff9" fill-opacity="1"><g transform="translate(402.481686, 25.047446)"><g><path d="M 5.421875 0 L 4.28125 -2.171875 L 2.734375 -2.171875 L 2.734375 0 L 0.765625 0 L 0.765625 -7.71875 L 4.21875 -7.71875 C 5.238281 -7.71875 6.023438 -7.484375 6.578125 -7.015625 C 7.140625 -6.546875 7.421875 -5.878906 7.421875 -5.015625 C 7.421875 -3.828125 6.957031 -3.003906 6.03125 -2.546875 L 7.640625 0 Z M 2.734375 -3.71875 L 4.21875 -3.71875 C 4.644531 -3.71875 4.972656 -3.820312 5.203125 -4.03125 C 5.441406 -4.238281 5.5625 -4.546875 5.5625 -4.953125 C 5.5625 -5.347656 5.441406 -5.648438 5.203125 -5.859375 C 4.972656 -6.066406 4.644531 -6.171875 4.21875 -6.171875 L 2.734375 -6.171875 Z M 2.734375 -3.71875 "/></g></g></g><g fill="#fcfff9" fill-opacity="1"><g transform="translate(411.987545, 25.047446)"><g/></g></g><g fill="#fcfff9" fill-opacity="1"><g transform="translate(416.081546, 25.047446)"><g><path d="M 0.765625 -7.71875 L 4.125 -7.71875 C 5.113281 -7.71875 5.878906 -7.484375 6.421875 -7.015625 C 6.960938 -6.546875 7.234375 -5.878906 7.234375 -5.015625 C 7.234375 -4.117188 6.960938 -3.421875 6.421875 -2.921875 C 5.878906 -2.421875 5.113281 -2.171875 4.125 -2.171875 L 2.734375 -2.171875 L 2.734375 0 L 0.765625 0 Z M 2.734375 -6.171875 L 2.734375 -3.71875 L 4.03125 -3.71875 C 4.46875 -3.71875 4.800781 -3.820312 5.03125 -4.03125 C 5.269531 -4.238281 5.390625 -4.546875 5.390625 -4.953125 C 5.390625 -5.347656 5.269531 -5.648438 5.03125 -5.859375 C 4.800781 -6.066406 4.46875 -6.171875 4.03125 -6.171875 Z M 2.734375 -6.171875 "/></g></g></g><g fill="#fcfff9" fill-opacity="1"><g transform="translate(425.103429, 25.047446)"><g><path d="M 2.734375 -1.640625 L 6 -1.640625 L 6 0 L 0.765625 0 L 0.765625 -7.71875 L 2.734375 -7.71875 Z M 2.734375 -1.640625 "/></g></g></g><g fill="#fcfff9" fill-opacity="1"><g transform="translate(432.805337, 25.047446)"><g><path d="M 5.890625 -1.421875 L 2.515625 -1.421875 L 1.953125 0 L -0.0625 0 L 3.265625 -7.71875 L 5.28125 -7.71875 L 8.53125 0 L 6.4375 0 Z M 5.328125 -2.90625 L 4.21875 -5.765625 L 3.09375 -2.90625 Z M 5.328125 -2.90625 "/></g></g></g><g fill="#fcfff9" fill-opacity="1"><g transform="translate(442.817188, 25.047446)"><g><path d="M 6.671875 -6.140625 L 4.34375 -6.140625 L 4.34375 0 L 2.375 0 L 2.375 -6.140625 L 0.078125 -6.140625 L 0.078125 -7.71875 L 6.671875 -7.71875 Z M 6.671875 -6.140625 "/></g></g></g><g fill="#fcfff9" fill-opacity="1"><g transform="translate(451.080086, 25.047446)"><g><path d="M 6.484375 -6.171875 L 2.734375 -6.171875 L 2.734375 -4.390625 L 6.1875 -4.390625 L 6.1875 -2.84375 L 2.734375 -2.84375 L 2.734375 0 L 0.765625 0 L 0.765625 -7.71875 L 6.484375 -7.71875 Z M 6.484375 -6.171875 "/></g></g></g><g fill="#fcfff9" fill-opacity="1"><g transform="translate(459.265986, 25.047446)"><g><path d="M 4.421875 -7.78125 C 5.617188 -7.78125 6.613281 -7.40625 7.40625 -6.65625 C 8.207031 -5.914062 8.609375 -4.984375 8.609375 -3.859375 C 8.609375 -2.742188 8.207031 -1.804688 7.40625 -1.046875 C 6.613281 -0.285156 5.617188 0.09375 4.421875 0.09375 C 3.234375 0.09375 2.242188 -0.28125 1.453125 -1.03125 C 0.660156 -1.789062 0.265625 -2.734375 0.265625 -3.859375 C 0.265625 -4.984375 0.660156 -5.914062 1.453125 -6.65625 C 2.242188 -7.40625 3.234375 -7.78125 4.421875 -7.78125 Z M 4.453125 -6.140625 C 3.847656 -6.140625 3.332031 -5.921875 2.90625 -5.484375 C 2.476562 -5.046875 2.265625 -4.503906 2.265625 -3.859375 C 2.265625 -3.210938 2.476562 -2.664062 2.90625 -2.21875 C 3.34375 -1.769531 3.859375 -1.546875 4.453125 -1.546875 C 5.046875 -1.546875 5.550781 -1.769531 5.96875 -2.21875 C 6.382812 -2.664062 6.59375 -3.210938 6.59375 -3.859375 C 6.59375 -4.503906 6.382812 -5.046875 5.96875 -5.484375 C 5.550781 -5.921875 5.046875 -6.140625 4.453125 -6.140625 Z M 4.453125 -6.140625 "/></g></g></g><g fill="#fcfff9" fill-opacity="1"><g transform="translate(469.662831, 25.047446)"><g><path d="M 5.421875 0 L 4.28125 -2.171875 L 2.734375 -2.171875 L 2.734375 0 L 0.765625 0 L 0.765625 -7.71875 L 4.21875 -7.71875 C 5.238281 -7.71875 6.023438 -7.484375 6.578125 -7.015625 C 7.140625 -6.546875 7.421875 -5.878906 7.421875 -5.015625 C 7.421875 -3.828125 6.957031 -3.003906 6.03125 -2.546875 L 7.640625 0 Z M 2.734375 -3.71875 L 4.21875 -3.71875 C 4.644531 -3.71875 4.972656 -3.820312 5.203125 -4.03125 C 5.441406 -4.238281 5.5625 -4.546875 5.5625 -4.953125 C 5.5625 -5.347656 5.441406 -5.648438 5.203125 -5.859375 C 4.972656 -6.066406 4.644531 -6.171875 4.21875 -6.171875 L 2.734375 -6.171875 Z M 2.734375 -3.71875 "/></g></g></g><g fill="#fcfff9" fill-opacity="1"><g transform="translate(479.168693, 25.047446)"><g><path d="M 9.234375 0 L 7.515625 0 L 7.5 -5.015625 L 5.65625 -0.765625 L 4.375 -0.765625 L 2.515625 -5.015625 L 2.515625 0 L 0.765625 0 L 0.765625 -7.71875 L 2.921875 -7.71875 L 5.015625 -3.125 L 7.109375 -7.71875 L 9.234375 -7.71875 Z M 9.234375 0 "/></g></g></g><g fill="#fcfff9" fill-opacity="1"><g transform="translate(490.72051, 25.047446)"><g><path d="M 3.734375 -7.796875 C 4.890625 -7.796875 5.90625 -7.507812 6.78125 -6.9375 L 6.03125 -5.40625 C 5.632812 -5.644531 5.203125 -5.835938 4.734375 -5.984375 C 4.273438 -6.140625 3.882812 -6.21875 3.5625 -6.21875 C 3 -6.21875 2.71875 -6.03125 2.71875 -5.65625 C 2.71875 -5.40625 2.859375 -5.207031 3.140625 -5.0625 C 3.421875 -4.914062 3.757812 -4.789062 4.15625 -4.6875 C 4.5625 -4.582031 4.960938 -4.453125 5.359375 -4.296875 C 5.753906 -4.148438 6.09375 -3.90625 6.375 -3.5625 C 6.65625 -3.226562 6.796875 -2.804688 6.796875 -2.296875 C 6.796875 -1.546875 6.503906 -0.960938 5.921875 -0.546875 C 5.347656 -0.140625 4.613281 0.0625 3.71875 0.0625 C 3.070312 0.0625 2.4375 -0.046875 1.8125 -0.265625 C 1.1875 -0.484375 0.644531 -0.785156 0.1875 -1.171875 L 0.953125 -2.671875 C 1.335938 -2.335938 1.796875 -2.0625 2.328125 -1.84375 C 2.859375 -1.625 3.328125 -1.515625 3.734375 -1.515625 C 4.046875 -1.515625 4.289062 -1.570312 4.46875 -1.6875 C 4.644531 -1.800781 4.734375 -1.96875 4.734375 -2.1875 C 4.734375 -2.40625 4.628906 -2.582031 4.421875 -2.71875 C 4.222656 -2.863281 3.972656 -2.972656 3.671875 -3.046875 C 3.378906 -3.117188 3.054688 -3.210938 2.703125 -3.328125 C 2.347656 -3.441406 2.019531 -3.566406 1.71875 -3.703125 C 1.414062 -3.847656 1.160156 -4.070312 0.953125 -4.375 C 0.753906 -4.675781 0.65625 -5.039062 0.65625 -5.46875 C 0.65625 -6.175781 0.9375 -6.738281 1.5 -7.15625 C 2.0625 -7.582031 2.804688 -7.796875 3.734375 -7.796875 Z M 3.734375 -7.796875 "/></g></g></g><g fill="#fcfff9" fill-opacity="1"><g transform="translate(19.615791, 67.979068)"><g><path d="M 7.890625 0 L 6.15625 0 L 2.609375 -4.75 L 2.609375 0 L 0.765625 0 L 0.765625 -7.71875 L 2.5 -7.71875 L 6.0625 -2.953125 L 6.0625 -7.71875 L 7.890625 -7.71875 Z M 7.890625 0 "/></g></g></g><g fill="#fcfff9" fill-opacity="1"><g transform="translate(29.803636, 67.979068)"><g><path d="M 4.421875 -7.78125 C 5.617188 -7.78125 6.613281 -7.40625 7.40625 -6.65625 C 8.207031 -5.914062 8.609375 -4.984375 8.609375 -3.859375 C 8.609375 -2.742188 8.207031 -1.804688 7.40625 -1.046875 C 6.613281 -0.285156 5.617188 0.09375 4.421875 0.09375 C 3.234375 0.09375 2.242188 -0.28125 1.453125 -1.03125 C 0.660156 -1.789062 0.265625 -2.734375 0.265625 -3.859375 C 0.265625 -4.984375 0.660156 -5.914062 1.453125 -6.65625 C 2.242188 -7.40625 3.234375 -7.78125 4.421875 -7.78125 Z M 4.453125 -6.140625 C 3.847656 -6.140625 3.332031 -5.921875 2.90625 -5.484375 C 2.476562 -5.046875 2.265625 -4.503906 2.265625 -3.859375 C 2.265625 -3.210938 2.476562 -2.664062 2.90625 -2.21875 C 3.34375 -1.769531 3.859375 -1.546875 4.453125 -1.546875 C 5.046875 -1.546875 5.550781 -1.769531 5.96875 -2.21875 C 6.382812 -2.664062 6.59375 -3.210938 6.59375 -3.859375 C 6.59375 -4.503906 6.382812 -5.046875 5.96875 -5.484375 C 5.550781 -5.921875 5.046875 -6.140625 4.453125 -6.140625 Z M 4.453125 -6.140625 "/></g></g></g><g fill="#fcfff9" fill-opacity="1"><g transform="translate(40.20048, 67.979068)"><g><path d="M 0.671875 -1.5 C 0.835938 -1.664062 1.054688 -1.75 1.328125 -1.75 C 1.597656 -1.75 1.820312 -1.664062 2 -1.5 C 2.175781 -1.332031 2.265625 -1.109375 2.265625 -0.828125 C 2.265625 -0.554688 2.175781 -0.332031 2 -0.15625 C 1.820312 0.0078125 1.597656 0.09375 1.328125 0.09375 C 1.054688 0.09375 0.835938 0.0078125 0.671875 -0.15625 C 0.503906 -0.332031 0.421875 -0.554688 0.421875 -0.828125 C 0.421875 -1.109375 0.503906 -1.332031 0.671875 -1.5 Z M 0.671875 -1.5 "/></g></g></g><g fill="#fcfff9" fill-opacity="1"><g transform="translate(44.423638, 67.979068)"><g/></g></g><g fill="#fcfff9" fill-opacity="1"><g transform="translate(48.517638, 67.979068)"><g/></g></g><g fill="#fcfff9" fill-opacity="1"><g transform="translate(52.614909, 67.979068)"><g><path d="M 4.421875 -7.78125 C 5.617188 -7.78125 6.613281 -7.40625 7.40625 -6.65625 C 8.207031 -5.914062 8.609375 -4.984375 8.609375 -3.859375 C 8.609375 -2.742188 8.207031 -1.804688 7.40625 -1.046875 C 6.613281 -0.285156 5.617188 0.09375 4.421875 0.09375 C 3.234375 0.09375 2.242188 -0.28125 1.453125 -1.03125 C 0.660156 -1.789062 0.265625 -2.734375 0.265625 -3.859375 C 0.265625 -4.984375 0.660156 -5.914062 1.453125 -6.65625 C 2.242188 -7.40625 3.234375 -7.78125 4.421875 -7.78125 Z M 4.453125 -6.140625 C 3.847656 -6.140625 3.332031 -5.921875 2.90625 -5.484375 C 2.476562 -5.046875 2.265625 -4.503906 2.265625 -3.859375 C 2.265625 -3.210938 2.476562 -2.664062 2.90625 -2.21875 C 3.34375 -1.769531 3.859375 -1.546875 4.453125 -1.546875 C 5.046875 -1.546875 5.550781 -1.769531 5.96875 -2.21875 C 6.382812 -2.664062 6.59375 -3.210938 6.59375 -3.859375 C 6.59375 -4.503906 6.382812 -5.046875 5.96875 -5.484375 C 5.550781 -5.921875 5.046875 -6.140625 4.453125 -6.140625 Z M 4.453125 -6.140625 "/></g></g></g><g fill="#fcfff9" fill-opacity="1"><g transform="translate(63.011753, 67.979068)"><g><path d="M 6.484375 -6.171875 L 2.734375 -6.171875 L 2.734375 -4.390625 L 6.1875 -4.390625 L 6.1875 -2.84375 L 2.734375 -2.84375 L 2.734375 0 L 0.765625 0 L 0.765625 -7.71875 L 6.484375 -7.71875 Z M 6.484375 -6.171875 "/></g></g></g><g fill="#fcfff9" fill-opacity="1"><g transform="translate(71.197651, 67.979068)"><g/></g></g><g fill="#fcfff9" fill-opacity="1"><g transform="translate(75.29165, 67.979068)"><g><path d="M 0.765625 -7.71875 L 4.125 -7.71875 C 5.113281 -7.71875 5.878906 -7.484375 6.421875 -7.015625 C 6.960938 -6.546875 7.234375 -5.878906 7.234375 -5.015625 C 7.234375 -4.117188 6.960938 -3.421875 6.421875 -2.921875 C 5.878906 -2.421875 5.113281 -2.171875 4.125 -2.171875 L 2.734375 -2.171875 L 2.734375 0 L 0.765625 0 Z M 2.734375 -6.171875 L 2.734375 -3.71875 L 4.03125 -3.71875 C 4.46875 -3.71875 4.800781 -3.820312 5.03125 -4.03125 C 5.269531 -4.238281 5.390625 -4.546875 5.390625 -4.953125 C 5.390625 -5.347656 5.269531 -5.648438 5.03125 -5.859375 C 4.800781 -6.066406 4.46875 -6.171875 4.03125 -6.171875 Z M 2.734375 -6.171875 "/></g></g></g><g fill="#fcfff9" fill-opacity="1"><g transform="translate(84.313531, 67.979068)"><g><path d="M 2.734375 -1.640625 L 6 -1.640625 L 6 0 L 0.765625 0 L 0.765625 -7.71875 L 2.734375 -7.71875 Z M 2.734375 -1.640625 "/></g></g></g><g fill="#fcfff9" fill-opacity="1"><g transform="translate(92.01544, 67.979068)"><g><path d="M 5.890625 -1.421875 L 2.515625 -1.421875 L 1.953125 0 L -0.0625 0 L 3.265625 -7.71875 L 5.28125 -7.71875 L 8.53125 0 L 6.4375 0 Z M 5.328125 -2.90625 L 4.21875 -5.765625 L 3.09375 -2.90625 Z M 5.328125 -2.90625 "/></g></g></g><g fill="#fcfff9" fill-opacity="1"><g transform="translate(102.027291, 67.979068)"><g><path d="M 6.671875 -6.140625 L 4.34375 -6.140625 L 4.34375 0 L 2.375 0 L 2.375 -6.140625 L 0.078125 -6.140625 L 0.078125 -7.71875 L 6.671875 -7.71875 Z M 6.671875 -6.140625 "/></g></g></g><g fill="#fcfff9" fill-opacity="1"><g transform="translate(110.290189, 67.979068)"><g><path d="M 6.484375 -6.171875 L 2.734375 -6.171875 L 2.734375 -4.390625 L 6.1875 -4.390625 L 6.1875 -2.84375 L 2.734375 -2.84375 L 2.734375 0 L 0.765625 0 L 0.765625 -7.71875 L 6.484375 -7.71875 Z M 6.484375 -6.171875 "/></g></g></g><g fill="#fcfff9" fill-opacity="1"><g transform="translate(118.476089, 67.979068)"><g><path d="M 4.421875 -7.78125 C 5.617188 -7.78125 6.613281 -7.40625 7.40625 -6.65625 C 8.207031 -5.914062 8.609375 -4.984375 8.609375 -3.859375 C 8.609375 -2.742188 8.207031 -1.804688 7.40625 -1.046875 C 6.613281 -0.285156 5.617188 0.09375 4.421875 0.09375 C 3.234375 0.09375 2.242188 -0.28125 1.453125 -1.03125 C 0.660156 -1.789062 0.265625 -2.734375 0.265625 -3.859375 C 0.265625 -4.984375 0.660156 -5.914062 1.453125 -6.65625 C 2.242188 -7.40625 3.234375 -7.78125 4.421875 -7.78125 Z M 4.453125 -6.140625 C 3.847656 -6.140625 3.332031 -5.921875 2.90625 -5.484375 C 2.476562 -5.046875 2.265625 -4.503906 2.265625 -3.859375 C 2.265625 -3.210938 2.476562 -2.664062 2.90625 -2.21875 C 3.34375 -1.769531 3.859375 -1.546875 4.453125 -1.546875 C 5.046875 -1.546875 5.550781 -1.769531 5.96875 -2.21875 C 6.382812 -2.664062 6.59375 -3.210938 6.59375 -3.859375 C 6.59375 -4.503906 6.382812 -5.046875 5.96875 -5.484375 C 5.550781 -5.921875 5.046875 -6.140625 4.453125 -6.140625 Z M 4.453125 -6.140625 "/></g></g></g><g fill="#fcfff9" fill-opacity="1"><g transform="translate(128.872934, 67.979068)"><g><path d="M 5.421875 0 L 4.28125 -2.171875 L 2.734375 -2.171875 L 2.734375 0 L 0.765625 0 L 0.765625 -7.71875 L 4.21875 -7.71875 C 5.238281 -7.71875 6.023438 -7.484375 6.578125 -7.015625 C 7.140625 -6.546875 7.421875 -5.878906 7.421875 -5.015625 C 7.421875 -3.828125 6.957031 -3.003906 6.03125 -2.546875 L 7.640625 0 Z M 2.734375 -3.71875 L 4.21875 -3.71875 C 4.644531 -3.71875 4.972656 -3.820312 5.203125 -4.03125 C 5.441406 -4.238281 5.5625 -4.546875 5.5625 -4.953125 C 5.5625 -5.347656 5.441406 -5.648438 5.203125 -5.859375 C 4.972656 -6.066406 4.644531 -6.171875 4.21875 -6.171875 L 2.734375 -6.171875 Z M 2.734375 -3.71875 "/></g></g></g><g fill="#fcfff9" fill-opacity="1"><g transform="translate(138.378796, 67.979068)"><g><path d="M 9.234375 0 L 7.515625 0 L 7.5 -5.015625 L 5.65625 -0.765625 L 4.375 -0.765625 L 2.515625 -5.015625 L 2.515625 0 L 0.765625 0 L 0.765625 -7.71875 L 2.921875 -7.71875 L 5.015625 -3.125 L 7.109375 -7.71875 L 9.234375 -7.71875 Z M 9.234375 0 "/></g></g></g><g fill="#fcfff9" fill-opacity="1"><g transform="translate(149.930607, 67.979068)"><g><path d="M 3.734375 -7.796875 C 4.890625 -7.796875 5.90625 -7.507812 6.78125 -6.9375 L 6.03125 -5.40625 C 5.632812 -5.644531 5.203125 -5.835938 4.734375 -5.984375 C 4.273438 -6.140625 3.882812 -6.21875 3.5625 -6.21875 C 3 -6.21875 2.71875 -6.03125 2.71875 -5.65625 C 2.71875 -5.40625 2.859375 -5.207031 3.140625 -5.0625 C 3.421875 -4.914062 3.757812 -4.789062 4.15625 -4.6875 C 4.5625 -4.582031 4.960938 -4.453125 5.359375 -4.296875 C 5.753906 -4.148438 6.09375 -3.90625 6.375 -3.5625 C 6.65625 -3.226562 6.796875 -2.804688 6.796875 -2.296875 C 6.796875 -1.546875 6.503906 -0.960938 5.921875 -0.546875 C 5.347656 -0.140625 4.613281 0.0625 3.71875 0.0625 C 3.070312 0.0625 2.4375 -0.046875 1.8125 -0.265625 C 1.1875 -0.484375 0.644531 -0.785156 0.1875 -1.171875 L 0.953125 -2.671875 C 1.335938 -2.335938 1.796875 -2.0625 2.328125 -1.84375 C 2.859375 -1.625 3.328125 -1.515625 3.734375 -1.515625 C 4.046875 -1.515625 4.289062 -1.570312 4.46875 -1.6875 C 4.644531 -1.800781 4.734375 -1.96875 4.734375 -2.1875 C 4.734375 -2.40625 4.628906 -2.582031 4.421875 -2.71875 C 4.222656 -2.863281 3.972656 -2.972656 3.671875 -3.046875 C 3.378906 -3.117188 3.054688 -3.210938 2.703125 -3.328125 C 2.347656 -3.441406 2.019531 -3.566406 1.71875 -3.703125 C 1.414062 -3.847656 1.160156 -4.070312 0.953125 -4.375 C 0.753906 -4.675781 0.65625 -5.039062 0.65625 -5.46875 C 0.65625 -6.175781 0.9375 -6.738281 1.5 -7.15625 C 2.0625 -7.582031 2.804688 -7.796875 3.734375 -7.796875 Z M 3.734375 -7.796875 "/></g></g></g><g fill="#fcfff9" fill-opacity="1"><g transform="translate(19.615791, 82.957391)"><g><path d="M 2.734375 0 L 0.765625 0 L 0.765625 -7.71875 L 2.734375 -7.71875 Z M 2.734375 0 "/></g></g></g><g fill="#fcfff9" fill-opacity="1"><g transform="translate(24.655763, 82.957391)"><g><path d="M 7.890625 0 L 6.15625 0 L 2.609375 -4.75 L 2.609375 0 L 0.765625 0 L 0.765625 -7.71875 L 2.5 -7.71875 L 6.0625 -2.953125 L 6.0625 -7.71875 L 7.890625 -7.71875 Z M 7.890625 0 "/></g></g></g><g fill="#fcfff9" fill-opacity="1"><g transform="translate(34.843607, 82.957391)"><g><path d="M 6.671875 -6.140625 L 4.34375 -6.140625 L 4.34375 0 L 2.375 0 L 2.375 -6.140625 L 0.078125 -6.140625 L 0.078125 -7.71875 L 6.671875 -7.71875 Z M 6.671875 -6.140625 "/></g></g></g><g fill="#fcfff9" fill-opacity="1"><g transform="translate(43.106504, 82.957391)"><g><path d="M 6.8125 -6.171875 L 2.734375 -6.171875 L 2.734375 -4.640625 L 6.40625 -4.640625 L 6.40625 -3.09375 L 2.734375 -3.09375 L 2.734375 -1.546875 L 6.921875 -1.546875 L 6.921875 0 L 0.765625 0 L 0.765625 -7.71875 L 6.8125 -7.71875 Z M 6.8125 -6.171875 "/></g></g></g><g fill="#fcfff9" fill-opacity="1"><g transform="translate(52.062378, 82.957391)"><g><path d="M 5.890625 -3.921875 L 7.59375 -3.921875 L 7.59375 -0.921875 C 7.175781 -0.617188 6.671875 -0.375 6.078125 -0.1875 C 5.484375 0 4.921875 0.09375 4.390625 0.09375 C 3.210938 0.09375 2.226562 -0.28125 1.4375 -1.03125 C 0.65625 -1.789062 0.265625 -2.734375 0.265625 -3.859375 C 0.265625 -4.972656 0.664062 -5.90625 1.46875 -6.65625 C 2.28125 -7.40625 3.296875 -7.78125 4.515625 -7.78125 C 5.085938 -7.78125 5.65625 -7.675781 6.21875 -7.46875 C 6.789062 -7.257812 7.273438 -6.976562 7.671875 -6.625 L 6.5625 -5.296875 C 6.28125 -5.554688 5.957031 -5.757812 5.59375 -5.90625 C 5.226562 -6.0625 4.863281 -6.140625 4.5 -6.140625 C 3.875 -6.140625 3.34375 -5.921875 2.90625 -5.484375 C 2.476562 -5.046875 2.265625 -4.503906 2.265625 -3.859375 C 2.265625 -3.203125 2.476562 -2.648438 2.90625 -2.203125 C 3.34375 -1.765625 3.882812 -1.546875 4.53125 -1.546875 C 4.9375 -1.546875 5.390625 -1.671875 5.890625 -1.921875 Z M 5.890625 -3.921875 "/></g></g></g><g fill="#fcfff9" fill-opacity="1"><g transform="translate(61.777236, 82.957391)"><g><path d="M 5.421875 0 L 4.28125 -2.171875 L 2.734375 -2.171875 L 2.734375 0 L 0.765625 0 L 0.765625 -7.71875 L 4.21875 -7.71875 C 5.238281 -7.71875 6.023438 -7.484375 6.578125 -7.015625 C 7.140625 -6.546875 7.421875 -5.878906 7.421875 -5.015625 C 7.421875 -3.828125 6.957031 -3.003906 6.03125 -2.546875 L 7.640625 0 Z M 2.734375 -3.71875 L 4.21875 -3.71875 C 4.644531 -3.71875 4.972656 -3.820312 5.203125 -4.03125 C 5.441406 -4.238281 5.5625 -4.546875 5.5625 -4.953125 C 5.5625 -5.347656 5.441406 -5.648438 5.203125 -5.859375 C 4.972656 -6.066406 4.644531 -6.171875 4.21875 -6.171875 L 2.734375 -6.171875 Z M 2.734375 -3.71875 "/></g></g></g><g fill="#fcfff9" fill-opacity="1"><g transform="translate(71.283097, 82.957391)"><g><path d="M 5.890625 -1.421875 L 2.515625 -1.421875 L 1.953125 0 L -0.0625 0 L 3.265625 -7.71875 L 5.28125 -7.71875 L 8.53125 0 L 6.4375 0 Z M 5.328125 -2.90625 L 4.21875 -5.765625 L 3.09375 -2.90625 Z M 5.328125 -2.90625 "/></g></g></g><g fill="#fcfff9" fill-opacity="1"><g transform="translate(81.294949, 82.957391)"><g><path d="M 6.671875 -6.140625 L 4.34375 -6.140625 L 4.34375 0 L 2.375 0 L 2.375 -6.140625 L 0.078125 -6.140625 L 0.078125 -7.71875 L 6.671875 -7.71875 Z M 6.671875 -6.140625 "/></g></g></g><g fill="#fcfff9" fill-opacity="1"><g transform="translate(89.557847, 82.957391)"><g><path d="M 6.8125 -6.171875 L 2.734375 -6.171875 L 2.734375 -4.640625 L 6.40625 -4.640625 L 6.40625 -3.09375 L 2.734375 -3.09375 L 2.734375 -1.546875 L 6.921875 -1.546875 L 6.921875 0 L 0.765625 0 L 0.765625 -7.71875 L 6.8125 -7.71875 Z M 6.8125 -6.171875 "/></g></g></g><g fill="#fcfff9" fill-opacity="1"><g transform="translate(98.513724, 82.957391)"><g><path d="M 0.765625 -7.71875 L 4.09375 -7.71875 C 5.300781 -7.71875 6.285156 -7.359375 7.046875 -6.640625 C 7.804688 -5.929688 8.1875 -5.003906 8.1875 -3.859375 C 8.1875 -2.710938 7.800781 -1.78125 7.03125 -1.0625 C 6.257812 -0.351562 5.253906 0 4.015625 0 L 0.765625 0 Z M 2.734375 -6.140625 L 2.734375 -1.5625 L 4.125 -1.5625 C 4.726562 -1.5625 5.222656 -1.769531 5.609375 -2.1875 C 5.992188 -2.613281 6.1875 -3.164062 6.1875 -3.84375 C 6.1875 -4.519531 5.984375 -5.070312 5.578125 -5.5 C 5.179688 -5.925781 4.671875 -6.140625 4.046875 -6.140625 Z M 2.734375 -6.140625 "/></g></g></g><g fill="#fcfff9" fill-opacity="1"><g transform="translate(269.566752, 79.082679)"><g><path d="M 2.09375 0 L 1.40625 0 L 1.40625 -5.5 L 0.15625 -5.5 L 0.15625 -6.171875 L 2.09375 -6.171875 Z M 2.09375 0 "/></g></g></g><g fill="#fcfff9" fill-opacity="1"><g transform="translate(391.945767, 79.082679)"><g><path d="M 7.171875 0 L 6.515625 0 L 6.515625 -5.078125 L 4.265625 -0.65625 L 3.84375 -0.65625 L 1.609375 -5.078125 L 1.609375 0 L 0.9375 0 L 0.9375 -6.171875 L 1.8125 -6.171875 L 4.0625 -1.734375 L 6.3125 -6.171875 L 7.171875 -6.171875 Z M 7.171875 0 "/></g></g></g><g fill="#fcfff9" fill-opacity="1"><g transform="translate(400.755276, 79.082679)"><g><path d="M 5.96875 -6.171875 L 5.96875 -2.53125 C 5.96875 -1.726562 5.738281 -1.097656 5.28125 -0.640625 C 4.820312 -0.191406 4.191406 0.03125 3.390625 0.03125 C 2.578125 0.03125 1.941406 -0.191406 1.484375 -0.640625 C 1.023438 -1.097656 0.796875 -1.726562 0.796875 -2.53125 L 0.796875 -6.171875 L 1.5 -6.171875 L 1.5 -2.53125 C 1.5 -1.9375 1.664062 -1.472656 2 -1.140625 C 2.34375 -0.804688 2.804688 -0.640625 3.390625 -0.640625 C 3.984375 -0.640625 4.441406 -0.804688 4.765625 -1.140625 C 5.097656 -1.472656 5.265625 -1.9375 5.265625 -2.53125 L 5.265625 -6.171875 Z M 5.96875 -6.171875 "/></g></g></g><g fill="#fcfff9" fill-opacity="1"><g transform="translate(408.218425, 79.082679)"><g><path d="M 1.640625 -0.671875 L 4.34375 -0.671875 L 4.34375 0 L 0.9375 0 L 0.9375 -6.171875 L 1.640625 -6.171875 Z M 1.640625 -0.671875 "/></g></g></g><g fill="#fcfff9" fill-opacity="1"><g transform="translate(413.472833, 79.082679)"><g><path d="M 4.828125 -5.484375 L 2.8125 -5.484375 L 2.8125 0 L 2.109375 0 L 2.109375 -5.484375 L 0.09375 -5.484375 L 0.09375 -6.171875 L 4.828125 -6.171875 Z M 4.828125 -5.484375 "/></g></g></g><g fill="#fcfff9" fill-opacity="1"><g transform="translate(419.088033, 79.082679)"><g><path d="M 1.640625 0 L 0.9375 0 L 0.9375 -6.171875 L 1.640625 -6.171875 Z M 1.640625 0 "/></g></g></g><g fill="#fcfff9" fill-opacity="1"><g transform="translate(422.362504, 79.082679)"><g><path d="M 0.9375 -6.171875 L 3.25 -6.171875 C 4.007812 -6.171875 4.597656 -5.988281 5.015625 -5.625 C 5.441406 -5.257812 5.65625 -4.75 5.65625 -4.09375 C 5.65625 -3.414062 5.441406 -2.890625 5.015625 -2.515625 C 4.597656 -2.140625 4.007812 -1.953125 3.25 -1.953125 L 1.640625 -1.953125 L 1.640625 0 L 0.9375 0 Z M 1.640625 -5.484375 L 1.640625 -2.625 L 3.21875 -2.625 C 3.789062 -2.625 4.226562 -2.742188 4.53125 -2.984375 C 4.832031 -3.234375 4.984375 -3.597656 4.984375 -4.078125 C 4.984375 -4.546875 4.832031 -4.894531 4.53125 -5.125 C 4.226562 -5.363281 3.789062 -5.484375 3.21875 -5.484375 Z M 1.640625 -5.484375 "/></g></g></g><g fill="#fcfff9" fill-opacity="1"><g transform="translate(428.954474, 79.082679)"><g><path d="M 1.640625 -0.671875 L 4.34375 -0.671875 L 4.34375 0 L 0.9375 0 L 0.9375 -6.171875 L 1.640625 -6.171875 Z M 1.640625 -0.671875 "/></g></g></g><g fill="#fcfff9" fill-opacity="1"><g transform="translate(434.208883, 79.082679)"><g><path d="M 5.125 -5.484375 L 1.640625 -5.484375 L 1.640625 -3.46875 L 4.75 -3.46875 L 4.75 -2.78125 L 1.640625 -2.78125 L 1.640625 -0.671875 L 5.234375 -0.671875 L 5.234375 0 L 0.9375 0 L 0.9375 -6.171875 L 5.125 -6.171875 Z M 5.125 -5.484375 "/></g></g></g><g fill="#fcfff9" fill-opacity="1"><g transform="translate(440.642464, 79.082679)"><g/></g></g><g fill="#fcfff9" fill-opacity="1"><g transform="translate(443.758535, 79.082679)"><g><path d="M 1.8125 -6.53125 L 2.4375 -6.53125 C 1.757812 -5.476562 1.421875 -4.207031 1.421875 -2.71875 C 1.421875 -1.21875 1.757812 0.0507812 2.4375 1.09375 L 1.8125 1.09375 C 1.113281 0.0703125 0.765625 -1.195312 0.765625 -2.71875 C 0.765625 -4.238281 1.113281 -5.507812 1.8125 -6.53125 Z M 1.8125 -6.53125 "/></g></g></g><g fill="#fcfff9" fill-opacity="1"><g transform="translate(447.129795, 79.082679)"><g><path d="M 4.3125 -5.484375 L 1.390625 -5.484375 L 1.390625 -3.75 C 1.734375 -3.8125 2.078125 -3.84375 2.421875 -3.84375 C 3.066406 -3.84375 3.582031 -3.671875 3.96875 -3.328125 C 4.351562 -2.984375 4.546875 -2.546875 4.546875 -2.015625 C 4.546875 -1.398438 4.347656 -0.90625 3.953125 -0.53125 C 3.554688 -0.164062 3.03125 0.015625 2.375 0.015625 C 2.03125 0.015625 1.671875 -0.0390625 1.296875 -0.15625 C 0.921875 -0.28125 0.585938 -0.445312 0.296875 -0.65625 L 0.578125 -1.25 C 1.117188 -0.84375 1.691406 -0.640625 2.296875 -0.640625 C 2.765625 -0.640625 3.128906 -0.757812 3.390625 -1 C 3.660156 -1.238281 3.796875 -1.5625 3.796875 -1.96875 C 3.796875 -2.332031 3.660156 -2.617188 3.390625 -2.828125 C 3.128906 -3.046875 2.769531 -3.15625 2.3125 -3.15625 C 1.757812 -3.15625 1.234375 -3.109375 0.734375 -3.015625 L 0.734375 -6.171875 L 4.3125 -6.171875 Z M 4.3125 -5.484375 "/></g></g></g><g fill="#fcfff9" fill-opacity="1"><g transform="translate(452.806587, 79.082679)"><g><path d="M 4 -2.59375 L 2.40625 -2.59375 L 2.40625 -1 L 1.9375 -1 L 1.9375 -2.59375 L 0.328125 -2.59375 L 0.328125 -3.109375 L 1.9375 -3.109375 L 1.9375 -4.703125 L 2.40625 -4.703125 L 2.40625 -3.109375 L 4 -3.109375 Z M 4 -2.59375 "/></g></g></g><g fill="#fcfff9" fill-opacity="1"><g transform="translate(457.832202, 79.082679)"><g><path d="M 0.78125 -6.53125 L 1.40625 -6.53125 C 2.101562 -5.507812 2.453125 -4.238281 2.453125 -2.71875 C 2.453125 -1.195312 2.101562 0.0703125 1.40625 1.09375 L 0.78125 1.09375 C 1.457031 0.0507812 1.796875 -1.21875 1.796875 -2.71875 C 1.796875 -4.207031 1.457031 -5.476562 0.78125 -6.53125 Z M 0.78125 -6.53125 "/></g></g></g><g fill="#fcfff9" fill-opacity="1"><g transform="translate(18.472428, 200.404778)"><g><path d="M 9.234375 0 L 7.515625 0 L 7.5 -5.015625 L 5.65625 -0.765625 L 4.375 -0.765625 L 2.515625 -5.015625 L 2.515625 0 L 0.765625 0 L 0.765625 -7.71875 L 2.921875 -7.71875 L 5.015625 -3.125 L 7.109375 -7.71875 L 9.234375 -7.71875 Z M 9.234375 0 "/></g></g></g><g fill="#fcfff9" fill-opacity="1"><g transform="translate(30.024244, 200.404778)"><g><path d="M 6.8125 -6.171875 L 2.734375 -6.171875 L 2.734375 -4.640625 L 6.40625 -4.640625 L 6.40625 -3.09375 L 2.734375 -3.09375 L 2.734375 -1.546875 L 6.921875 -1.546875 L 6.921875 0 L 0.765625 0 L 0.765625 -7.71875 L 6.8125 -7.71875 Z M 6.8125 -6.171875 "/></g></g></g><g fill="#fcfff9" fill-opacity="1"><g transform="translate(38.980119, 200.404778)"><g><path d="M 9.234375 0 L 7.515625 0 L 7.5 -5.015625 L 5.65625 -0.765625 L 4.375 -0.765625 L 2.515625 -5.015625 L 2.515625 0 L 0.765625 0 L 0.765625 -7.71875 L 2.921875 -7.71875 L 5.015625 -3.125 L 7.109375 -7.71875 L 9.234375 -7.71875 Z M 9.234375 0 "/></g></g></g><g fill="#fcfff9" fill-opacity="1"><g transform="translate(50.531933, 200.404778)"><g><path d="M 0.765625 -7.71875 L 4.421875 -7.71875 C 5.285156 -7.71875 5.972656 -7.539062 6.484375 -7.1875 C 6.992188 -6.84375 7.25 -6.375 7.25 -5.78125 C 7.25 -5.375 7.128906 -5.019531 6.890625 -4.71875 C 6.660156 -4.414062 6.335938 -4.207031 5.921875 -4.09375 C 6.410156 -3.988281 6.796875 -3.757812 7.078125 -3.40625 C 7.367188 -3.0625 7.515625 -2.640625 7.515625 -2.140625 C 7.515625 -1.484375 7.25 -0.960938 6.71875 -0.578125 C 6.1875 -0.191406 5.460938 0 4.546875 0 L 0.765625 0 Z M 2.71875 -6.21875 L 2.71875 -4.625 L 4.3125 -4.625 C 4.59375 -4.625 4.816406 -4.695312 4.984375 -4.84375 C 5.160156 -4.988281 5.25 -5.1875 5.25 -5.4375 C 5.25 -5.675781 5.160156 -5.863281 4.984375 -6 C 4.816406 -6.144531 4.59375 -6.21875 4.3125 -6.21875 Z M 2.71875 -3.21875 L 2.71875 -1.515625 L 4.3125 -1.515625 C 4.675781 -1.515625 4.960938 -1.585938 5.171875 -1.734375 C 5.378906 -1.890625 5.484375 -2.101562 5.484375 -2.375 C 5.484375 -2.632812 5.378906 -2.835938 5.171875 -2.984375 C 4.960938 -3.140625 4.675781 -3.21875 4.3125 -3.21875 Z M 2.71875 -3.21875 "/></g></g></g><g fill="#fcfff9" fill-opacity="1"><g transform="translate(59.938798, 200.404778)"><g><path d="M 6.8125 -6.171875 L 2.734375 -6.171875 L 2.734375 -4.640625 L 6.40625 -4.640625 L 6.40625 -3.09375 L 2.734375 -3.09375 L 2.734375 -1.546875 L 6.921875 -1.546875 L 6.921875 0 L 0.765625 0 L 0.765625 -7.71875 L 6.8125 -7.71875 Z M 6.8125 -6.171875 "/></g></g></g><g fill="#fcfff9" fill-opacity="1"><g transform="translate(68.894675, 200.404778)"><g><path d="M 5.421875 0 L 4.28125 -2.171875 L 2.734375 -2.171875 L 2.734375 0 L 0.765625 0 L 0.765625 -7.71875 L 4.21875 -7.71875 C 5.238281 -7.71875 6.023438 -7.484375 6.578125 -7.015625 C 7.140625 -6.546875 7.421875 -5.878906 7.421875 -5.015625 C 7.421875 -3.828125 6.957031 -3.003906 6.03125 -2.546875 L 7.640625 0 Z M 2.734375 -3.71875 L 4.21875 -3.71875 C 4.644531 -3.71875 4.972656 -3.820312 5.203125 -4.03125 C 5.441406 -4.238281 5.5625 -4.546875 5.5625 -4.953125 C 5.5625 -5.347656 5.441406 -5.648438 5.203125 -5.859375 C 4.972656 -6.066406 4.644531 -6.171875 4.21875 -6.171875 L 2.734375 -6.171875 Z M 2.734375 -3.71875 "/></g></g></g><g fill="#fcfff9" fill-opacity="1"><g transform="translate(78.400536, 200.404778)"><g><path d="M 3.734375 -7.796875 C 4.890625 -7.796875 5.90625 -7.507812 6.78125 -6.9375 L 6.03125 -5.40625 C 5.632812 -5.644531 5.203125 -5.835938 4.734375 -5.984375 C 4.273438 -6.140625 3.882812 -6.21875 3.5625 -6.21875 C 3 -6.21875 2.71875 -6.03125 2.71875 -5.65625 C 2.71875 -5.40625 2.859375 -5.207031 3.140625 -5.0625 C 3.421875 -4.914062 3.757812 -4.789062 4.15625 -4.6875 C 4.5625 -4.582031 4.960938 -4.453125 5.359375 -4.296875 C 5.753906 -4.148438 6.09375 -3.90625 6.375 -3.5625 C 6.65625 -3.226562 6.796875 -2.804688 6.796875 -2.296875 C 6.796875 -1.546875 6.503906 -0.960938 5.921875 -0.546875 C 5.347656 -0.140625 4.613281 0.0625 3.71875 0.0625 C 3.070312 0.0625 2.4375 -0.046875 1.8125 -0.265625 C 1.1875 -0.484375 0.644531 -0.785156 0.1875 -1.171875 L 0.953125 -2.671875 C 1.335938 -2.335938 1.796875 -2.0625 2.328125 -1.84375 C 2.859375 -1.625 3.328125 -1.515625 3.734375 -1.515625 C 4.046875 -1.515625 4.289062 -1.570312 4.46875 -1.6875 C 4.644531 -1.800781 4.734375 -1.96875 4.734375 -2.1875 C 4.734375 -2.40625 4.628906 -2.582031 4.421875 -2.71875 C 4.222656 -2.863281 3.972656 -2.972656 3.671875 -3.046875 C 3.378906 -3.117188 3.054688 -3.210938 2.703125 -3.328125 C 2.347656 -3.441406 2.019531 -3.566406 1.71875 -3.703125 C 1.414062 -3.847656 1.160156 -4.070312 0.953125 -4.375 C 0.753906 -4.675781 0.65625 -5.039062 0.65625 -5.46875 C 0.65625 -6.175781 0.9375 -6.738281 1.5 -7.15625 C 2.0625 -7.582031 2.804688 -7.796875 3.734375 -7.796875 Z M 3.734375 -7.796875 "/></g></g></g><g fill="#fcfff9" fill-opacity="1"><g transform="translate(87.02642, 200.404778)"><g><path d="M 7.890625 0 L 5.921875 0 L 5.921875 -3 L 2.734375 -3 L 2.734375 0 L 0.765625 0 L 0.765625 -7.71875 L 2.734375 -7.71875 L 2.734375 -4.53125 L 5.921875 -4.53125 L 5.921875 -7.71875 L 7.890625 -7.71875 Z M 7.890625 0 "/></g></g></g><g fill="#fcfff9" fill-opacity="1"><g transform="translate(97.214267, 200.404778)"><g><path d="M 2.734375 0 L 0.765625 0 L 0.765625 -7.71875 L 2.734375 -7.71875 Z M 2.734375 0 "/></g></g></g><g fill="#fcfff9" fill-opacity="1"><g transform="translate(102.254241, 200.404778)"><g><path d="M 0.765625 -7.71875 L 4.125 -7.71875 C 5.113281 -7.71875 5.878906 -7.484375 6.421875 -7.015625 C 6.960938 -6.546875 7.234375 -5.878906 7.234375 -5.015625 C 7.234375 -4.117188 6.960938 -3.421875 6.421875 -2.921875 C 5.878906 -2.421875 5.113281 -2.171875 4.125 -2.171875 L 2.734375 -2.171875 L 2.734375 0 L 0.765625 0 Z M 2.734375 -6.171875 L 2.734375 -3.71875 L 4.03125 -3.71875 C 4.46875 -3.71875 4.800781 -3.820312 5.03125 -4.03125 C 5.269531 -4.238281 5.390625 -4.546875 5.390625 -4.953125 C 5.390625 -5.347656 5.269531 -5.648438 5.03125 -5.859375 C 4.800781 -6.066406 4.46875 -6.171875 4.03125 -6.171875 Z M 2.734375 -6.171875 "/></g></g></g><g fill="#fcfff9" fill-opacity="1"><g transform="translate(111.276123, 200.404778)"><g/></g></g><g fill="#fcfff9" fill-opacity="1"><g transform="translate(115.370118, 200.404778)"><g><path d="M 9.234375 0 L 7.515625 0 L 7.5 -5.015625 L 5.65625 -0.765625 L 4.375 -0.765625 L 2.515625 -5.015625 L 2.515625 0 L 0.765625 0 L 0.765625 -7.71875 L 2.921875 -7.71875 L 5.015625 -3.125 L 7.109375 -7.71875 L 9.234375 -7.71875 Z M 9.234375 0 "/></g></g></g><g fill="#fcfff9" fill-opacity="1"><g transform="translate(126.921935, 200.404778)"><g><path d="M 5.890625 -1.421875 L 2.515625 -1.421875 L 1.953125 0 L -0.0625 0 L 3.265625 -7.71875 L 5.28125 -7.71875 L 8.53125 0 L 6.4375 0 Z M 5.328125 -2.90625 L 4.21875 -5.765625 L 3.09375 -2.90625 Z M 5.328125 -2.90625 "/></g></g></g><g fill="#fcfff9" fill-opacity="1"><g transform="translate(136.933786, 200.404778)"><g><path d="M 7.890625 0 L 6.15625 0 L 2.609375 -4.75 L 2.609375 0 L 0.765625 0 L 0.765625 -7.71875 L 2.5 -7.71875 L 6.0625 -2.953125 L 6.0625 -7.71875 L 7.890625 -7.71875 Z M 7.890625 0 "/></g></g></g><g fill="#fcfff9" fill-opacity="1"><g transform="translate(147.121633, 200.404778)"><g><path d="M 5.890625 -1.421875 L 2.515625 -1.421875 L 1.953125 0 L -0.0625 0 L 3.265625 -7.71875 L 5.28125 -7.71875 L 8.53125 0 L 6.4375 0 Z M 5.328125 -2.90625 L 4.21875 -5.765625 L 3.09375 -2.90625 Z M 5.328125 -2.90625 "/></g></g></g><g fill="#fcfff9" fill-opacity="1"><g transform="translate(157.133484, 200.404778)"><g><path d="M 5.890625 -3.921875 L 7.59375 -3.921875 L 7.59375 -0.921875 C 7.175781 -0.617188 6.671875 -0.375 6.078125 -0.1875 C 5.484375 0 4.921875 0.09375 4.390625 0.09375 C 3.210938 0.09375 2.226562 -0.28125 1.4375 -1.03125 C 0.65625 -1.789062 0.265625 -2.734375 0.265625 -3.859375 C 0.265625 -4.972656 0.664062 -5.90625 1.46875 -6.65625 C 2.28125 -7.40625 3.296875 -7.78125 4.515625 -7.78125 C 5.085938 -7.78125 5.65625 -7.675781 6.21875 -7.46875 C 6.789062 -7.257812 7.273438 -6.976562 7.671875 -6.625 L 6.5625 -5.296875 C 6.28125 -5.554688 5.957031 -5.757812 5.59375 -5.90625 C 5.226562 -6.0625 4.863281 -6.140625 4.5 -6.140625 C 3.875 -6.140625 3.34375 -5.921875 2.90625 -5.484375 C 2.476562 -5.046875 2.265625 -4.503906 2.265625 -3.859375 C 2.265625 -3.203125 2.476562 -2.648438 2.90625 -2.203125 C 3.34375 -1.765625 3.882812 -1.546875 4.53125 -1.546875 C 4.9375 -1.546875 5.390625 -1.671875 5.890625 -1.921875 Z M 5.890625 -3.921875 "/></g></g></g><g fill="#fcfff9" fill-opacity="1"><g transform="translate(166.848345, 200.404778)"><g><path d="M 6.8125 -6.171875 L 2.734375 -6.171875 L 2.734375 -4.640625 L 6.40625 -4.640625 L 6.40625 -3.09375 L 2.734375 -3.09375 L 2.734375 -1.546875 L 6.921875 -1.546875 L 6.921875 0 L 0.765625 0 L 0.765625 -7.71875 L 6.8125 -7.71875 Z M 6.8125 -6.171875 "/></g></g></g><g fill="#fcfff9" fill-opacity="1"><g transform="translate(175.804221, 200.404778)"><g><path d="M 9.234375 0 L 7.515625 0 L 7.5 -5.015625 L 5.65625 -0.765625 L 4.375 -0.765625 L 2.515625 -5.015625 L 2.515625 0 L 0.765625 0 L 0.765625 -7.71875 L 2.921875 -7.71875 L 5.015625 -3.125 L 7.109375 -7.71875 L 9.234375 -7.71875 Z M 9.234375 0 "/></g></g></g><g fill="#fcfff9" fill-opacity="1"><g transform="translate(187.356038, 200.404778)"><g><path d="M 6.8125 -6.171875 L 2.734375 -6.171875 L 2.734375 -4.640625 L 6.40625 -4.640625 L 6.40625 -3.09375 L 2.734375 -3.09375 L 2.734375 -1.546875 L 6.921875 -1.546875 L 6.921875 0 L 0.765625 0 L 0.765625 -7.71875 L 6.8125 -7.71875 Z M 6.8125 -6.171875 "/></g></g></g><g fill="#fcfff9" fill-opacity="1"><g transform="translate(196.311915, 200.404778)"><g><path d="M 7.890625 0 L 6.15625 0 L 2.609375 -4.75 L 2.609375 0 L 0.765625 0 L 0.765625 -7.71875 L 2.5 -7.71875 L 6.0625 -2.953125 L 6.0625 -7.71875 L 7.890625 -7.71875 Z M 7.890625 0 "/></g></g></g><g fill="#fcfff9" fill-opacity="1"><g transform="translate(206.499761, 200.404778)"><g><path d="M 6.671875 -6.140625 L 4.34375 -6.140625 L 4.34375 0 L 2.375 0 L 2.375 -6.140625 L 0.078125 -6.140625 L 0.078125 -7.71875 L 6.671875 -7.71875 Z M 6.671875 -6.140625 "/></g></g></g><g fill="#fcfff9" fill-opacity="1"><g transform="translate(18.472428, 215.383101)"><g><path d="M 4.390625 -7.78125 C 4.960938 -7.78125 5.523438 -7.660156 6.078125 -7.421875 C 6.628906 -7.191406 7.097656 -6.878906 7.484375 -6.484375 L 6.359375 -5.140625 C 6.109375 -5.441406 5.804688 -5.679688 5.453125 -5.859375 C 5.109375 -6.046875 4.765625 -6.140625 4.421875 -6.140625 C 3.804688 -6.140625 3.289062 -5.921875 2.875 -5.484375 C 2.46875 -5.054688 2.265625 -4.53125 2.265625 -3.90625 C 2.265625 -3.257812 2.46875 -2.71875 2.875 -2.28125 C 3.289062 -1.84375 3.804688 -1.625 4.421875 -1.625 C 4.742188 -1.625 5.078125 -1.703125 5.421875 -1.859375 C 5.773438 -2.023438 6.085938 -2.25 6.359375 -2.53125 L 7.5 -1.328125 C 7.082031 -0.898438 6.585938 -0.554688 6.015625 -0.296875 C 5.453125 -0.0351562 4.882812 0.09375 4.3125 0.09375 C 3.15625 0.09375 2.191406 -0.285156 1.421875 -1.046875 C 0.648438 -1.804688 0.265625 -2.75 0.265625 -3.875 C 0.265625 -4.988281 0.65625 -5.914062 1.4375 -6.65625 C 2.226562 -7.40625 3.210938 -7.78125 4.390625 -7.78125 Z M 4.390625 -7.78125 "/></g></g></g><g fill="#fcfff9" fill-opacity="1"><g transform="translate(27.626297, 215.383101)"><g><path d="M 4.421875 -7.78125 C 5.617188 -7.78125 6.613281 -7.40625 7.40625 -6.65625 C 8.207031 -5.914062 8.609375 -4.984375 8.609375 -3.859375 C 8.609375 -2.742188 8.207031 -1.804688 7.40625 -1.046875 C 6.613281 -0.285156 5.617188 0.09375 4.421875 0.09375 C 3.234375 0.09375 2.242188 -0.28125 1.453125 -1.03125 C 0.660156 -1.789062 0.265625 -2.734375 0.265625 -3.859375 C 0.265625 -4.984375 0.660156 -5.914062 1.453125 -6.65625 C 2.242188 -7.40625 3.234375 -7.78125 4.421875 -7.78125 Z M 4.453125 -6.140625 C 3.847656 -6.140625 3.332031 -5.921875 2.90625 -5.484375 C 2.476562 -5.046875 2.265625 -4.503906 2.265625 -3.859375 C 2.265625 -3.210938 2.476562 -2.664062 2.90625 -2.21875 C 3.34375 -1.769531 3.859375 -1.546875 4.453125 -1.546875 C 5.046875 -1.546875 5.550781 -1.769531 5.96875 -2.21875 C 6.382812 -2.664062 6.59375 -3.210938 6.59375 -3.859375 C 6.59375 -4.503906 6.382812 -5.046875 5.96875 -5.484375 C 5.550781 -5.921875 5.046875 -6.140625 4.453125 -6.140625 Z M 4.453125 -6.140625 "/></g></g></g><g fill="#fcfff9" fill-opacity="1"><g transform="translate(38.023141, 215.383101)"><g><path d="M 9.234375 0 L 7.515625 0 L 7.5 -5.015625 L 5.65625 -0.765625 L 4.375 -0.765625 L 2.515625 -5.015625 L 2.515625 0 L 0.765625 0 L 0.765625 -7.71875 L 2.921875 -7.71875 L 5.015625 -3.125 L 7.109375 -7.71875 L 9.234375 -7.71875 Z M 9.234375 0 "/></g></g></g><g fill="#fcfff9" fill-opacity="1"><g transform="translate(49.574955, 215.383101)"><g><path d="M 0.765625 -7.71875 L 4.125 -7.71875 C 5.113281 -7.71875 5.878906 -7.484375 6.421875 -7.015625 C 6.960938 -6.546875 7.234375 -5.878906 7.234375 -5.015625 C 7.234375 -4.117188 6.960938 -3.421875 6.421875 -2.921875 C 5.878906 -2.421875 5.113281 -2.171875 4.125 -2.171875 L 2.734375 -2.171875 L 2.734375 0 L 0.765625 0 Z M 2.734375 -6.171875 L 2.734375 -3.71875 L 4.03125 -3.71875 C 4.46875 -3.71875 4.800781 -3.820312 5.03125 -4.03125 C 5.269531 -4.238281 5.390625 -4.546875 5.390625 -4.953125 C 5.390625 -5.347656 5.269531 -5.648438 5.03125 -5.859375 C 4.800781 -6.066406 4.46875 -6.171875 4.03125 -6.171875 Z M 2.734375 -6.171875 "/></g></g></g><g fill="#fcfff9" fill-opacity="1"><g transform="translate(58.596838, 215.383101)"><g><path d="M 2.734375 -1.640625 L 6 -1.640625 L 6 0 L 0.765625 0 L 0.765625 -7.71875 L 2.734375 -7.71875 Z M 2.734375 -1.640625 "/></g></g></g><g fill="#fcfff9" fill-opacity="1"><g transform="translate(66.298746, 215.383101)"><g><path d="M 6.8125 -6.171875 L 2.734375 -6.171875 L 2.734375 -4.640625 L 6.40625 -4.640625 L 6.40625 -3.09375 L 2.734375 -3.09375 L 2.734375 -1.546875 L 6.921875 -1.546875 L 6.921875 0 L 0.765625 0 L 0.765625 -7.71875 L 6.8125 -7.71875 Z M 6.8125 -6.171875 "/></g></g></g><g fill="#fcfff9" fill-opacity="1"><g transform="translate(75.254622, 215.383101)"><g><path d="M 5.25 -4.03125 L 8.015625 0 L 5.65625 0 L 4 -2.453125 L 2.328125 0 L 0.0625 0 L 2.8125 -3.9375 L 0.234375 -7.71875 L 2.515625 -7.71875 L 4 -5.46875 L 5.484375 -7.71875 L 7.78125 -7.71875 Z M 5.25 -4.03125 "/></g></g></g><g fill="#fcfff9" fill-opacity="1"><g transform="translate(84.870486, 215.383101)"><g><path d="M 2.734375 0 L 0.765625 0 L 0.765625 -7.71875 L 2.734375 -7.71875 Z M 2.734375 0 "/></g></g></g><g fill="#fcfff9" fill-opacity="1"><g transform="translate(89.91046, 215.383101)"><g><path d="M 6.671875 -6.140625 L 4.34375 -6.140625 L 4.34375 0 L 2.375 0 L 2.375 -6.140625 L 0.078125 -6.140625 L 0.078125 -7.71875 L 6.671875 -7.71875 Z M 6.671875 -6.140625 "/></g></g></g><g fill="#fcfff9" fill-opacity="1"><g transform="translate(98.173358, 215.383101)"><g><path d="M 4.75 -2.484375 L 4.75 0 L 2.796875 0 L 2.796875 -2.4375 L -0.0625 -7.71875 L 1.90625 -7.71875 L 3.765625 -4.34375 L 5.578125 -7.71875 L 7.546875 -7.71875 Z M 4.75 -2.484375 "/></g></g></g><g fill="#fcfff9" fill-opacity="1"><g transform="translate(258.827895, 211.506246)"><g><path d="M 1.640625 -0.671875 L 4.34375 -0.671875 L 4.34375 0 L 0.9375 0 L 0.9375 -6.171875 L 1.640625 -6.171875 Z M 1.640625 -0.671875 "/></g></g></g><g fill="#fcfff9" fill-opacity="1"><g transform="translate(264.082303, 211.506246)"><g><path d="M 3.59375 -6.1875 C 4.488281 -6.1875 5.25 -5.882812 5.875 -5.28125 C 6.5 -4.6875 6.8125 -3.953125 6.8125 -3.078125 C 6.8125 -2.210938 6.5 -1.476562 5.875 -0.875 C 5.25 -0.269531 4.488281 0.03125 3.59375 0.03125 C 2.6875 0.03125 1.921875 -0.269531 1.296875 -0.875 C 0.671875 -1.476562 0.359375 -2.210938 0.359375 -3.078125 C 0.359375 -3.953125 0.671875 -4.6875 1.296875 -5.28125 C 1.921875 -5.882812 2.6875 -6.1875 3.59375 -6.1875 Z M 3.59375 -5.515625 C 2.894531 -5.515625 2.296875 -5.273438 1.796875 -4.796875 C 1.304688 -4.328125 1.0625 -3.753906 1.0625 -3.078125 C 1.0625 -2.410156 1.304688 -1.835938 1.796875 -1.359375 C 2.296875 -0.878906 2.894531 -0.640625 3.59375 -0.640625 C 4.28125 -0.640625 4.867188 -0.878906 5.359375 -1.359375 C 5.847656 -1.835938 6.09375 -2.410156 6.09375 -3.078125 C 6.09375 -3.753906 5.847656 -4.328125 5.359375 -4.796875 C 4.867188 -5.273438 4.28125 -5.515625 3.59375 -5.515625 Z M 3.59375 -5.515625 "/></g></g></g><g fill="#fcfff9" fill-opacity="1"><g transform="translate(271.94144, 211.506246)"><g><path d="M 6.90625 0 L 6.1875 0 L 4.515625 -5.203125 L 2.84375 0 L 2.109375 0 L 0.046875 -6.171875 L 0.8125 -6.171875 L 2.5 -0.8125 L 4.171875 -6.15625 L 4.875 -6.171875 L 6.578125 -0.8125 L 8.25 -6.171875 L 8.984375 -6.171875 Z M 6.90625 0 "/></g></g></g><g fill="#fcfff9" fill-opacity="1"><g transform="translate(412.298616, 211.506246)"><g><path d="M 6.0625 0 L 5.359375 0 L 5.359375 -2.71875 L 1.640625 -2.71875 L 1.640625 0 L 0.9375 0 L 0.9375 -6.171875 L 1.640625 -6.171875 L 1.640625 -3.390625 L 5.359375 -3.390625 L 5.359375 -6.171875 L 6.0625 -6.171875 Z M 6.0625 0 "/></g></g></g><g fill="#fcfff9" fill-opacity="1"><g transform="translate(419.990556, 211.506246)"><g><path d="M 1.640625 0 L 0.9375 0 L 0.9375 -6.171875 L 1.640625 -6.171875 Z M 1.640625 0 "/></g></g></g><g fill="#fcfff9" fill-opacity="1"><g transform="translate(423.265026, 211.506246)"><g><path d="M 5.234375 -3.015625 L 5.859375 -3.015625 L 5.859375 -0.78125 C 5.546875 -0.53125 5.1875 -0.332031 4.78125 -0.1875 C 4.375 -0.0390625 3.96875 0.03125 3.5625 0.03125 C 2.675781 0.03125 1.921875 -0.269531 1.296875 -0.875 C 0.671875 -1.476562 0.359375 -2.210938 0.359375 -3.078125 C 0.359375 -3.953125 0.671875 -4.6875 1.296875 -5.28125 C 1.921875 -5.882812 2.691406 -6.1875 3.609375 -6.1875 C 4.484375 -6.1875 5.238281 -5.90625 5.875 -5.34375 L 5.46875 -4.8125 C 4.9375 -5.289062 4.316406 -5.53125 3.609375 -5.53125 C 2.898438 -5.53125 2.296875 -5.289062 1.796875 -4.8125 C 1.304688 -4.332031 1.0625 -3.753906 1.0625 -3.078125 C 1.0625 -2.398438 1.3125 -1.820312 1.8125 -1.34375 C 2.3125 -0.875 2.910156 -0.640625 3.609375 -0.640625 C 4.191406 -0.640625 4.734375 -0.8125 5.234375 -1.15625 Z M 5.234375 -3.015625 "/></g></g></g><g fill="#fcfff9" fill-opacity="1"><g transform="translate(430.596175, 211.506246)"><g><path d="M 6.0625 0 L 5.359375 0 L 5.359375 -2.71875 L 1.640625 -2.71875 L 1.640625 0 L 0.9375 0 L 0.9375 -6.171875 L 1.640625 -6.171875 L 1.640625 -3.390625 L 5.359375 -3.390625 L 5.359375 -6.171875 L 6.0625 -6.171875 Z M 6.0625 0 "/></g></g></g><g fill="#fcfff9" fill-opacity="1"><g transform="translate(18.472428, 264.855333)"><g><path d="M 4.390625 -7.78125 C 4.960938 -7.78125 5.523438 -7.660156 6.078125 -7.421875 C 6.628906 -7.191406 7.097656 -6.878906 7.484375 -6.484375 L 6.359375 -5.140625 C 6.109375 -5.441406 5.804688 -5.679688 5.453125 -5.859375 C 5.109375 -6.046875 4.765625 -6.140625 4.421875 -6.140625 C 3.804688 -6.140625 3.289062 -5.921875 2.875 -5.484375 C 2.46875 -5.054688 2.265625 -4.53125 2.265625 -3.90625 C 2.265625 -3.257812 2.46875 -2.71875 2.875 -2.28125 C 3.289062 -1.84375 3.804688 -1.625 4.421875 -1.625 C 4.742188 -1.625 5.078125 -1.703125 5.421875 -1.859375 C 5.773438 -2.023438 6.085938 -2.25 6.359375 -2.53125 L 7.5 -1.328125 C 7.082031 -0.898438 6.585938 -0.554688 6.015625 -0.296875 C 5.453125 -0.0351562 4.882812 0.09375 4.3125 0.09375 C 3.15625 0.09375 2.191406 -0.285156 1.421875 -1.046875 C 0.648438 -1.804688 0.265625 -2.75 0.265625 -3.875 C 0.265625 -4.988281 0.65625 -5.914062 1.4375 -6.65625 C 2.226562 -7.40625 3.210938 -7.78125 4.390625 -7.78125 Z M 4.390625 -7.78125 "/></g></g></g><g fill="#fcfff9" fill-opacity="1"><g transform="translate(27.626297, 264.855333)"><g><path d="M 5.421875 0 L 4.28125 -2.171875 L 2.734375 -2.171875 L 2.734375 0 L 0.765625 0 L 0.765625 -7.71875 L 4.21875 -7.71875 C 5.238281 -7.71875 6.023438 -7.484375 6.578125 -7.015625 C 7.140625 -6.546875 7.421875 -5.878906 7.421875 -5.015625 C 7.421875 -3.828125 6.957031 -3.003906 6.03125 -2.546875 L 7.640625 0 Z M 2.734375 -3.71875 L 4.21875 -3.71875 C 4.644531 -3.71875 4.972656 -3.820312 5.203125 -4.03125 C 5.441406 -4.238281 5.5625 -4.546875 5.5625 -4.953125 C 5.5625 -5.347656 5.441406 -5.648438 5.203125 -5.859375 C 4.972656 -6.066406 4.644531 -6.171875 4.21875 -6.171875 L 2.734375 -6.171875 Z M 2.734375 -3.71875 "/></g></g></g><g fill="#fcfff9" fill-opacity="1"><g transform="translate(37.132158, 264.855333)"><g><path d="M 4.421875 -7.78125 C 5.617188 -7.78125 6.613281 -7.40625 7.40625 -6.65625 C 8.207031 -5.914062 8.609375 -4.984375 8.609375 -3.859375 C 8.609375 -2.742188 8.207031 -1.804688 7.40625 -1.046875 C 6.613281 -0.285156 5.617188 0.09375 4.421875 0.09375 C 3.234375 0.09375 2.242188 -0.28125 1.453125 -1.03125 C 0.660156 -1.789062 0.265625 -2.734375 0.265625 -3.859375 C 0.265625 -4.984375 0.660156 -5.914062 1.453125 -6.65625 C 2.242188 -7.40625 3.234375 -7.78125 4.421875 -7.78125 Z M 4.453125 -6.140625 C 3.847656 -6.140625 3.332031 -5.921875 2.90625 -5.484375 C 2.476562 -5.046875 2.265625 -4.503906 2.265625 -3.859375 C 2.265625 -3.210938 2.476562 -2.664062 2.90625 -2.21875 C 3.34375 -1.769531 3.859375 -1.546875 4.453125 -1.546875 C 5.046875 -1.546875 5.550781 -1.769531 5.96875 -2.21875 C 6.382812 -2.664062 6.59375 -3.210938 6.59375 -3.859375 C 6.59375 -4.503906 6.382812 -5.046875 5.96875 -5.484375 C 5.550781 -5.921875 5.046875 -6.140625 4.453125 -6.140625 Z M 4.453125 -6.140625 "/></g></g></g><g fill="#fcfff9" fill-opacity="1"><g transform="translate(47.529, 264.855333)"><g><path d="M 3.734375 -7.796875 C 4.890625 -7.796875 5.90625 -7.507812 6.78125 -6.9375 L 6.03125 -5.40625 C 5.632812 -5.644531 5.203125 -5.835938 4.734375 -5.984375 C 4.273438 -6.140625 3.882812 -6.21875 3.5625 -6.21875 C 3 -6.21875 2.71875 -6.03125 2.71875 -5.65625 C 2.71875 -5.40625 2.859375 -5.207031 3.140625 -5.0625 C 3.421875 -4.914062 3.757812 -4.789062 4.15625 -4.6875 C 4.5625 -4.582031 4.960938 -4.453125 5.359375 -4.296875 C 5.753906 -4.148438 6.09375 -3.90625 6.375 -3.5625 C 6.65625 -3.226562 6.796875 -2.804688 6.796875 -2.296875 C 6.796875 -1.546875 6.503906 -0.960938 5.921875 -0.546875 C 5.347656 -0.140625 4.613281 0.0625 3.71875 0.0625 C 3.070312 0.0625 2.4375 -0.046875 1.8125 -0.265625 C 1.1875 -0.484375 0.644531 -0.785156 0.1875 -1.171875 L 0.953125 -2.671875 C 1.335938 -2.335938 1.796875 -2.0625 2.328125 -1.84375 C 2.859375 -1.625 3.328125 -1.515625 3.734375 -1.515625 C 4.046875 -1.515625 4.289062 -1.570312 4.46875 -1.6875 C 4.644531 -1.800781 4.734375 -1.96875 4.734375 -2.1875 C 4.734375 -2.40625 4.628906 -2.582031 4.421875 -2.71875 C 4.222656 -2.863281 3.972656 -2.972656 3.671875 -3.046875 C 3.378906 -3.117188 3.054688 -3.210938 2.703125 -3.328125 C 2.347656 -3.441406 2.019531 -3.566406 1.71875 -3.703125 C 1.414062 -3.847656 1.160156 -4.070312 0.953125 -4.375 C 0.753906 -4.675781 0.65625 -5.039062 0.65625 -5.46875 C 0.65625 -6.175781 0.9375 -6.738281 1.5 -7.15625 C 2.0625 -7.582031 2.804688 -7.796875 3.734375 -7.796875 Z M 3.734375 -7.796875 "/></g></g></g><g fill="#fcfff9" fill-opacity="1"><g transform="translate(56.154884, 264.855333)"><g><path d="M 3.734375 -7.796875 C 4.890625 -7.796875 5.90625 -7.507812 6.78125 -6.9375 L 6.03125 -5.40625 C 5.632812 -5.644531 5.203125 -5.835938 4.734375 -5.984375 C 4.273438 -6.140625 3.882812 -6.21875 3.5625 -6.21875 C 3 -6.21875 2.71875 -6.03125 2.71875 -5.65625 C 2.71875 -5.40625 2.859375 -5.207031 3.140625 -5.0625 C 3.421875 -4.914062 3.757812 -4.789062 4.15625 -4.6875 C 4.5625 -4.582031 4.960938 -4.453125 5.359375 -4.296875 C 5.753906 -4.148438 6.09375 -3.90625 6.375 -3.5625 C 6.65625 -3.226562 6.796875 -2.804688 6.796875 -2.296875 C 6.796875 -1.546875 6.503906 -0.960938 5.921875 -0.546875 C 5.347656 -0.140625 4.613281 0.0625 3.71875 0.0625 C 3.070312 0.0625 2.4375 -0.046875 1.8125 -0.265625 C 1.1875 -0.484375 0.644531 -0.785156 0.1875 -1.171875 L 0.953125 -2.671875 C 1.335938 -2.335938 1.796875 -2.0625 2.328125 -1.84375 C 2.859375 -1.625 3.328125 -1.515625 3.734375 -1.515625 C 4.046875 -1.515625 4.289062 -1.570312 4.46875 -1.6875 C 4.644531 -1.800781 4.734375 -1.96875 4.734375 -2.1875 C 4.734375 -2.40625 4.628906 -2.582031 4.421875 -2.71875 C 4.222656 -2.863281 3.972656 -2.972656 3.671875 -3.046875 C 3.378906 -3.117188 3.054688 -3.210938 2.703125 -3.328125 C 2.347656 -3.441406 2.019531 -3.566406 1.71875 -3.703125 C 1.414062 -3.847656 1.160156 -4.070312 0.953125 -4.375 C 0.753906 -4.675781 0.65625 -5.039062 0.65625 -5.46875 C 0.65625 -6.175781 0.9375 -6.738281 1.5 -7.15625 C 2.0625 -7.582031 2.804688 -7.796875 3.734375 -7.796875 Z M 3.734375 -7.796875 "/></g></g></g><g fill="#fcfff9" fill-opacity="1"><g transform="translate(64.780767, 264.855333)"><g/></g></g><g fill="#fcfff9" fill-opacity="1"><g transform="translate(68.874768, 264.855333)"><g><path d="M 0.765625 -7.71875 L 4.125 -7.71875 C 5.113281 -7.71875 5.878906 -7.484375 6.421875 -7.015625 C 6.960938 -6.546875 7.234375 -5.878906 7.234375 -5.015625 C 7.234375 -4.117188 6.960938 -3.421875 6.421875 -2.921875 C 5.878906 -2.421875 5.113281 -2.171875 4.125 -2.171875 L 2.734375 -2.171875 L 2.734375 0 L 0.765625 0 Z M 2.734375 -6.171875 L 2.734375 -3.71875 L 4.03125 -3.71875 C 4.46875 -3.71875 4.800781 -3.820312 5.03125 -4.03125 C 5.269531 -4.238281 5.390625 -4.546875 5.390625 -4.953125 C 5.390625 -5.347656 5.269531 -5.648438 5.03125 -5.859375 C 4.800781 -6.066406 4.46875 -6.171875 4.03125 -6.171875 Z M 2.734375 -6.171875 "/></g></g></g><g fill="#fcfff9" fill-opacity="1"><g transform="translate(77.89665, 264.855333)"><g><path d="M 2.734375 -1.640625 L 6 -1.640625 L 6 0 L 0.765625 0 L 0.765625 -7.71875 L 2.734375 -7.71875 Z M 2.734375 -1.640625 "/></g></g></g><g fill="#fcfff9" fill-opacity="1"><g transform="translate(85.598558, 264.855333)"><g><path d="M 5.890625 -1.421875 L 2.515625 -1.421875 L 1.953125 0 L -0.0625 0 L 3.265625 -7.71875 L 5.28125 -7.71875 L 8.53125 0 L 6.4375 0 Z M 5.328125 -2.90625 L 4.21875 -5.765625 L 3.09375 -2.90625 Z M 5.328125 -2.90625 "/></g></g></g><g fill="#fcfff9" fill-opacity="1"><g transform="translate(95.61041, 264.855333)"><g><path d="M 6.671875 -6.140625 L 4.34375 -6.140625 L 4.34375 0 L 2.375 0 L 2.375 -6.140625 L 0.078125 -6.140625 L 0.078125 -7.71875 L 6.671875 -7.71875 Z M 6.671875 -6.140625 "/></g></g></g><g fill="#fcfff9" fill-opacity="1"><g transform="translate(103.873308, 264.855333)"><g><path d="M 6.484375 -6.171875 L 2.734375 -6.171875 L 2.734375 -4.390625 L 6.1875 -4.390625 L 6.1875 -2.84375 L 2.734375 -2.84375 L 2.734375 0 L 0.765625 0 L 0.765625 -7.71875 L 6.484375 -7.71875 Z M 6.484375 -6.171875 "/></g></g></g><g fill="#fcfff9" fill-opacity="1"><g transform="translate(112.059207, 264.855333)"><g><path d="M 4.421875 -7.78125 C 5.617188 -7.78125 6.613281 -7.40625 7.40625 -6.65625 C 8.207031 -5.914062 8.609375 -4.984375 8.609375 -3.859375 C 8.609375 -2.742188 8.207031 -1.804688 7.40625 -1.046875 C 6.613281 -0.285156 5.617188 0.09375 4.421875 0.09375 C 3.234375 0.09375 2.242188 -0.28125 1.453125 -1.03125 C 0.660156 -1.789062 0.265625 -2.734375 0.265625 -3.859375 C 0.265625 -4.984375 0.660156 -5.914062 1.453125 -6.65625 C 2.242188 -7.40625 3.234375 -7.78125 4.421875 -7.78125 Z M 4.453125 -6.140625 C 3.847656 -6.140625 3.332031 -5.921875 2.90625 -5.484375 C 2.476562 -5.046875 2.265625 -4.503906 2.265625 -3.859375 C 2.265625 -3.210938 2.476562 -2.664062 2.90625 -2.21875 C 3.34375 -1.769531 3.859375 -1.546875 4.453125 -1.546875 C 5.046875 -1.546875 5.550781 -1.769531 5.96875 -2.21875 C 6.382812 -2.664062 6.59375 -3.210938 6.59375 -3.859375 C 6.59375 -4.503906 6.382812 -5.046875 5.96875 -5.484375 C 5.550781 -5.921875 5.046875 -6.140625 4.453125 -6.140625 Z M 4.453125 -6.140625 "/></g></g></g><g fill="#fcfff9" fill-opacity="1"><g transform="translate(122.456047, 264.855333)"><g><path d="M 5.421875 0 L 4.28125 -2.171875 L 2.734375 -2.171875 L 2.734375 0 L 0.765625 0 L 0.765625 -7.71875 L 4.21875 -7.71875 C 5.238281 -7.71875 6.023438 -7.484375 6.578125 -7.015625 C 7.140625 -6.546875 7.421875 -5.878906 7.421875 -5.015625 C 7.421875 -3.828125 6.957031 -3.003906 6.03125 -2.546875 L 7.640625 0 Z M 2.734375 -3.71875 L 4.21875 -3.71875 C 4.644531 -3.71875 4.972656 -3.820312 5.203125 -4.03125 C 5.441406 -4.238281 5.5625 -4.546875 5.5625 -4.953125 C 5.5625 -5.347656 5.441406 -5.648438 5.203125 -5.859375 C 4.972656 -6.066406 4.644531 -6.171875 4.21875 -6.171875 L 2.734375 -6.171875 Z M 2.734375 -3.71875 "/></g></g></g><g fill="#fcfff9" fill-opacity="1"><g transform="translate(131.961909, 264.855333)"><g><path d="M 9.234375 0 L 7.515625 0 L 7.5 -5.015625 L 5.65625 -0.765625 L 4.375 -0.765625 L 2.515625 -5.015625 L 2.515625 0 L 0.765625 0 L 0.765625 -7.71875 L 2.921875 -7.71875 L 5.015625 -3.125 L 7.109375 -7.71875 L 9.234375 -7.71875 Z M 9.234375 0 "/></g></g></g><g fill="#fcfff9" fill-opacity="1"><g transform="translate(18.472428, 279.833656)"><g><path d="M 0.765625 -7.71875 L 4.09375 -7.71875 C 5.300781 -7.71875 6.285156 -7.359375 7.046875 -6.640625 C 7.804688 -5.929688 8.1875 -5.003906 8.1875 -3.859375 C 8.1875 -2.710938 7.800781 -1.78125 7.03125 -1.0625 C 6.257812 -0.351562 5.253906 0 4.015625 0 L 0.765625 0 Z M 2.734375 -6.140625 L 2.734375 -1.5625 L 4.125 -1.5625 C 4.726562 -1.5625 5.222656 -1.769531 5.609375 -2.1875 C 5.992188 -2.613281 6.1875 -3.164062 6.1875 -3.84375 C 6.1875 -4.519531 5.984375 -5.070312 5.578125 -5.5 C 5.179688 -5.925781 4.671875 -6.140625 4.046875 -6.140625 Z M 2.734375 -6.140625 "/></g></g></g><g fill="#fcfff9" fill-opacity="1"><g transform="translate(28.451275, 279.833656)"><g><path d="M 2.734375 0 L 0.765625 0 L 0.765625 -7.71875 L 2.734375 -7.71875 Z M 2.734375 0 "/></g></g></g><g fill="#fcfff9" fill-opacity="1"><g transform="translate(33.491248, 279.833656)"><g><path d="M 3.734375 -7.796875 C 4.890625 -7.796875 5.90625 -7.507812 6.78125 -6.9375 L 6.03125 -5.40625 C 5.632812 -5.644531 5.203125 -5.835938 4.734375 -5.984375 C 4.273438 -6.140625 3.882812 -6.21875 3.5625 -6.21875 C 3 -6.21875 2.71875 -6.03125 2.71875 -5.65625 C 2.71875 -5.40625 2.859375 -5.207031 3.140625 -5.0625 C 3.421875 -4.914062 3.757812 -4.789062 4.15625 -4.6875 C 4.5625 -4.582031 4.960938 -4.453125 5.359375 -4.296875 C 5.753906 -4.148438 6.09375 -3.90625 6.375 -3.5625 C 6.65625 -3.226562 6.796875 -2.804688 6.796875 -2.296875 C 6.796875 -1.546875 6.503906 -0.960938 5.921875 -0.546875 C 5.347656 -0.140625 4.613281 0.0625 3.71875 0.0625 C 3.070312 0.0625 2.4375 -0.046875 1.8125 -0.265625 C 1.1875 -0.484375 0.644531 -0.785156 0.1875 -1.171875 L 0.953125 -2.671875 C 1.335938 -2.335938 1.796875 -2.0625 2.328125 -1.84375 C 2.859375 -1.625 3.328125 -1.515625 3.734375 -1.515625 C 4.046875 -1.515625 4.289062 -1.570312 4.46875 -1.6875 C 4.644531 -1.800781 4.734375 -1.96875 4.734375 -2.1875 C 4.734375 -2.40625 4.628906 -2.582031 4.421875 -2.71875 C 4.222656 -2.863281 3.972656 -2.972656 3.671875 -3.046875 C 3.378906 -3.117188 3.054688 -3.210938 2.703125 -3.328125 C 2.347656 -3.441406 2.019531 -3.566406 1.71875 -3.703125 C 1.414062 -3.847656 1.160156 -4.070312 0.953125 -4.375 C 0.753906 -4.675781 0.65625 -5.039062 0.65625 -5.46875 C 0.65625 -6.175781 0.9375 -6.738281 1.5 -7.15625 C 2.0625 -7.582031 2.804688 -7.796875 3.734375 -7.796875 Z M 3.734375 -7.796875 "/></g></g></g><g fill="#fcfff9" fill-opacity="1"><g transform="translate(42.11713, 279.833656)"><g><path d="M 6.671875 -6.140625 L 4.34375 -6.140625 L 4.34375 0 L 2.375 0 L 2.375 -6.140625 L 0.078125 -6.140625 L 0.078125 -7.71875 L 6.671875 -7.71875 Z M 6.671875 -6.140625 "/></g></g></g><g fill="#fcfff9" fill-opacity="1"><g transform="translate(50.380027, 279.833656)"><g><path d="M 5.421875 0 L 4.28125 -2.171875 L 2.734375 -2.171875 L 2.734375 0 L 0.765625 0 L 0.765625 -7.71875 L 4.21875 -7.71875 C 5.238281 -7.71875 6.023438 -7.484375 6.578125 -7.015625 C 7.140625 -6.546875 7.421875 -5.878906 7.421875 -5.015625 C 7.421875 -3.828125 6.957031 -3.003906 6.03125 -2.546875 L 7.640625 0 Z M 2.734375 -3.71875 L 4.21875 -3.71875 C 4.644531 -3.71875 4.972656 -3.820312 5.203125 -4.03125 C 5.441406 -4.238281 5.5625 -4.546875 5.5625 -4.953125 C 5.5625 -5.347656 5.441406 -5.648438 5.203125 -5.859375 C 4.972656 -6.066406 4.644531 -6.171875 4.21875 -6.171875 L 2.734375 -6.171875 Z M 2.734375 -3.71875 "/></g></g></g><g fill="#fcfff9" fill-opacity="1"><g transform="translate(59.885888, 279.833656)"><g><path d="M 2.734375 0 L 0.765625 0 L 0.765625 -7.71875 L 2.734375 -7.71875 Z M 2.734375 0 "/></g></g></g><g fill="#fcfff9" fill-opacity="1"><g transform="translate(64.925862, 279.833656)"><g><path d="M 0.765625 -7.71875 L 4.421875 -7.71875 C 5.285156 -7.71875 5.972656 -7.539062 6.484375 -7.1875 C 6.992188 -6.84375 7.25 -6.375 7.25 -5.78125 C 7.25 -5.375 7.128906 -5.019531 6.890625 -4.71875 C 6.660156 -4.414062 6.335938 -4.207031 5.921875 -4.09375 C 6.410156 -3.988281 6.796875 -3.757812 7.078125 -3.40625 C 7.367188 -3.0625 7.515625 -2.640625 7.515625 -2.140625 C 7.515625 -1.484375 7.25 -0.960938 6.71875 -0.578125 C 6.1875 -0.191406 5.460938 0 4.546875 0 L 0.765625 0 Z M 2.71875 -6.21875 L 2.71875 -4.625 L 4.3125 -4.625 C 4.59375 -4.625 4.816406 -4.695312 4.984375 -4.84375 C 5.160156 -4.988281 5.25 -5.1875 5.25 -5.4375 C 5.25 -5.675781 5.160156 -5.863281 4.984375 -6 C 4.816406 -6.144531 4.59375 -6.21875 4.3125 -6.21875 Z M 2.71875 -3.21875 L 2.71875 -1.515625 L 4.3125 -1.515625 C 4.675781 -1.515625 4.960938 -1.585938 5.171875 -1.734375 C 5.378906 -1.890625 5.484375 -2.101562 5.484375 -2.375 C 5.484375 -2.632812 5.378906 -2.835938 5.171875 -2.984375 C 4.960938 -3.140625 4.675781 -3.21875 4.3125 -3.21875 Z M 2.71875 -3.21875 "/></g></g></g><g fill="#fcfff9" fill-opacity="1"><g transform="translate(74.332727, 279.833656)"><g><path d="M 7.71875 -7.71875 L 7.71875 -3.234375 C 7.71875 -2.210938 7.398438 -1.398438 6.765625 -0.796875 C 6.128906 -0.203125 5.273438 0.09375 4.203125 0.09375 C 3.109375 0.09375 2.238281 -0.203125 1.59375 -0.796875 C 0.957031 -1.398438 0.640625 -2.210938 0.640625 -3.234375 L 0.640625 -7.71875 L 2.59375 -7.71875 L 2.59375 -3.234375 C 2.59375 -2.722656 2.738281 -2.3125 3.03125 -2 C 3.332031 -1.695312 3.722656 -1.546875 4.203125 -1.546875 C 4.671875 -1.546875 5.046875 -1.695312 5.328125 -2 C 5.617188 -2.300781 5.765625 -2.710938 5.765625 -3.234375 L 5.765625 -7.71875 Z M 7.71875 -7.71875 "/></g></g></g><g fill="#fcfff9" fill-opacity="1"><g transform="translate(84.212579, 279.833656)"><g><path d="M 6.671875 -6.140625 L 4.34375 -6.140625 L 4.34375 0 L 2.375 0 L 2.375 -6.140625 L 0.078125 -6.140625 L 0.078125 -7.71875 L 6.671875 -7.71875 Z M 6.671875 -6.140625 "/></g></g></g><g fill="#fcfff9" fill-opacity="1"><g transform="translate(92.475477, 279.833656)"><g><path d="M 2.734375 0 L 0.765625 0 L 0.765625 -7.71875 L 2.734375 -7.71875 Z M 2.734375 0 "/></g></g></g><g fill="#fcfff9" fill-opacity="1"><g transform="translate(97.515451, 279.833656)"><g><path d="M 4.421875 -7.78125 C 5.617188 -7.78125 6.613281 -7.40625 7.40625 -6.65625 C 8.207031 -5.914062 8.609375 -4.984375 8.609375 -3.859375 C 8.609375 -2.742188 8.207031 -1.804688 7.40625 -1.046875 C 6.613281 -0.285156 5.617188 0.09375 4.421875 0.09375 C 3.234375 0.09375 2.242188 -0.28125 1.453125 -1.03125 C 0.660156 -1.789062 0.265625 -2.734375 0.265625 -3.859375 C 0.265625 -4.984375 0.660156 -5.914062 1.453125 -6.65625 C 2.242188 -7.40625 3.234375 -7.78125 4.421875 -7.78125 Z M 4.453125 -6.140625 C 3.847656 -6.140625 3.332031 -5.921875 2.90625 -5.484375 C 2.476562 -5.046875 2.265625 -4.503906 2.265625 -3.859375 C 2.265625 -3.210938 2.476562 -2.664062 2.90625 -2.21875 C 3.34375 -1.769531 3.859375 -1.546875 4.453125 -1.546875 C 5.046875 -1.546875 5.550781 -1.769531 5.96875 -2.21875 C 6.382812 -2.664062 6.59375 -3.210938 6.59375 -3.859375 C 6.59375 -4.503906 6.382812 -5.046875 5.96875 -5.484375 C 5.550781 -5.921875 5.046875 -6.140625 4.453125 -6.140625 Z M 4.453125 -6.140625 "/></g></g></g><g fill="#fcfff9" fill-opacity="1"><g transform="translate(107.912297, 279.833656)"><g><path d="M 7.890625 0 L 6.15625 0 L 2.609375 -4.75 L 2.609375 0 L 0.765625 0 L 0.765625 -7.71875 L 2.5 -7.71875 L 6.0625 -2.953125 L 6.0625 -7.71875 L 7.890625 -7.71875 Z M 7.890625 0 "/></g></g></g><g fill="#fcfff9" fill-opacity="1"><g transform="translate(238.466737, 275.956844)"><g><path d="M 4.84375 -1.5625 L 1.46875 -1.5625 L 0.78125 0 L 0.03125 0 L 2.796875 -6.171875 L 3.53125 -6.171875 L 6.296875 0 L 5.53125 0 Z M 4.53125 -2.234375 L 3.140625 -5.359375 L 1.765625 -2.234375 Z M 4.53125 -2.234375 "/></g></g></g><g fill="#fcfff9" fill-opacity="1"><g transform="translate(245.489902, 275.956844)"><g><path d="M 5.96875 -6.171875 L 5.96875 -2.53125 C 5.96875 -1.726562 5.738281 -1.097656 5.28125 -0.640625 C 4.820312 -0.191406 4.191406 0.03125 3.390625 0.03125 C 2.578125 0.03125 1.941406 -0.191406 1.484375 -0.640625 C 1.023438 -1.097656 0.796875 -1.726562 0.796875 -2.53125 L 0.796875 -6.171875 L 1.5 -6.171875 L 1.5 -2.53125 C 1.5 -1.9375 1.664062 -1.472656 2 -1.140625 C 2.34375 -0.804688 2.804688 -0.640625 3.390625 -0.640625 C 3.984375 -0.640625 4.441406 -0.804688 4.765625 -1.140625 C 5.097656 -1.472656 5.265625 -1.9375 5.265625 -2.53125 L 5.265625 -6.171875 Z M 5.96875 -6.171875 "/></g></g></g><g fill="#fcfff9" fill-opacity="1"><g transform="translate(252.953051, 275.956844)"><g><path d="M 4.828125 -5.484375 L 2.8125 -5.484375 L 2.8125 0 L 2.109375 0 L 2.109375 -5.484375 L 0.09375 -5.484375 L 0.09375 -6.171875 L 4.828125 -6.171875 Z M 4.828125 -5.484375 "/></g></g></g><g fill="#fcfff9" fill-opacity="1"><g transform="translate(258.568249, 275.956844)"><g><path d="M 3.59375 -6.1875 C 4.488281 -6.1875 5.25 -5.882812 5.875 -5.28125 C 6.5 -4.6875 6.8125 -3.953125 6.8125 -3.078125 C 6.8125 -2.210938 6.5 -1.476562 5.875 -0.875 C 5.25 -0.269531 4.488281 0.03125 3.59375 0.03125 C 2.6875 0.03125 1.921875 -0.269531 1.296875 -0.875 C 0.671875 -1.476562 0.359375 -2.210938 0.359375 -3.078125 C 0.359375 -3.953125 0.671875 -4.6875 1.296875 -5.28125 C 1.921875 -5.882812 2.6875 -6.1875 3.59375 -6.1875 Z M 3.59375 -5.515625 C 2.894531 -5.515625 2.296875 -5.273438 1.796875 -4.796875 C 1.304688 -4.328125 1.0625 -3.753906 1.0625 -3.078125 C 1.0625 -2.410156 1.304688 -1.835938 1.796875 -1.359375 C 2.296875 -0.878906 2.894531 -0.640625 3.59375 -0.640625 C 4.28125 -0.640625 4.867188 -0.878906 5.359375 -1.359375 C 5.847656 -1.835938 6.09375 -2.410156 6.09375 -3.078125 C 6.09375 -3.753906 5.847656 -4.328125 5.359375 -4.796875 C 4.867188 -5.273438 4.28125 -5.515625 3.59375 -5.515625 Z M 3.59375 -5.515625 "/></g></g></g><g fill="#fcfff9" fill-opacity="1"><g transform="translate(266.427386, 275.956844)"><g><path d="M 7.171875 0 L 6.515625 0 L 6.515625 -5.078125 L 4.265625 -0.65625 L 3.84375 -0.65625 L 1.609375 -5.078125 L 1.609375 0 L 0.9375 0 L 0.9375 -6.171875 L 1.8125 -6.171875 L 4.0625 -1.734375 L 6.3125 -6.171875 L 7.171875 -6.171875 Z M 7.171875 0 "/></g></g></g><g fill="#fcfff9" fill-opacity="1"><g transform="translate(275.236896, 275.956844)"><g><path d="M 4.84375 -1.5625 L 1.46875 -1.5625 L 0.78125 0 L 0.03125 0 L 2.796875 -6.171875 L 3.53125 -6.171875 L 6.296875 0 L 5.53125 0 Z M 4.53125 -2.234375 L 3.140625 -5.359375 L 1.765625 -2.234375 Z M 4.53125 -2.234375 "/></g></g></g><g fill="#fcfff9" fill-opacity="1"><g transform="translate(282.260062, 275.956844)"><g><path d="M 4.828125 -5.484375 L 2.8125 -5.484375 L 2.8125 0 L 2.109375 0 L 2.109375 -5.484375 L 0.09375 -5.484375 L 0.09375 -6.171875 L 4.828125 -6.171875 Z M 4.828125 -5.484375 "/></g></g></g><g fill="#fcfff9" fill-opacity="1"><g transform="translate(287.875262, 275.956844)"><g><path d="M 5.125 -5.484375 L 1.640625 -5.484375 L 1.640625 -3.46875 L 4.75 -3.46875 L 4.75 -2.78125 L 1.640625 -2.78125 L 1.640625 -0.671875 L 5.234375 -0.671875 L 5.234375 0 L 0.9375 0 L 0.9375 -6.171875 L 5.125 -6.171875 Z M 5.125 -5.484375 "/></g></g></g><g fill="#fcfff9" fill-opacity="1"><g transform="translate(294.308843, 275.956844)"><g><path d="M 0.9375 -6.171875 L 3.421875 -6.171875 C 4.328125 -6.171875 5.082031 -5.875 5.6875 -5.28125 C 6.289062 -4.6875 6.59375 -3.953125 6.59375 -3.078125 C 6.59375 -2.203125 6.285156 -1.46875 5.671875 -0.875 C 5.066406 -0.289062 4.3125 0 3.40625 0 L 0.9375 0 Z M 1.640625 -5.484375 L 1.640625 -0.671875 L 3.4375 -0.671875 C 4.132812 -0.671875 4.71875 -0.898438 5.1875 -1.359375 C 5.65625 -1.816406 5.890625 -2.390625 5.890625 -3.078125 C 5.890625 -3.765625 5.648438 -4.335938 5.171875 -4.796875 C 4.691406 -5.253906 4.101562 -5.484375 3.40625 -5.484375 Z M 1.640625 -5.484375 "/></g></g></g><g fill="#fcfff9" fill-opacity="1"><g transform="translate(403.650974, 275.956844)"><g><path d="M 7.171875 0 L 6.515625 0 L 6.515625 -5.078125 L 4.265625 -0.65625 L 3.84375 -0.65625 L 1.609375 -5.078125 L 1.609375 0 L 0.9375 0 L 0.9375 -6.171875 L 1.8125 -6.171875 L 4.0625 -1.734375 L 6.3125 -6.171875 L 7.171875 -6.171875 Z M 7.171875 0 "/></g></g></g><g fill="#fcfff9" fill-opacity="1"><g transform="translate(412.460483, 275.956844)"><g><path d="M 4.84375 -1.5625 L 1.46875 -1.5625 L 0.78125 0 L 0.03125 0 L 2.796875 -6.171875 L 3.53125 -6.171875 L 6.296875 0 L 5.53125 0 Z M 4.53125 -2.234375 L 3.140625 -5.359375 L 1.765625 -2.234375 Z M 4.53125 -2.234375 "/></g></g></g><g fill="#fcfff9" fill-opacity="1"><g transform="translate(419.483649, 275.956844)"><g><path d="M 6.0625 0 L 5.34375 0 L 1.640625 -4.953125 L 1.640625 0 L 0.9375 0 L 0.9375 -6.171875 L 1.671875 -6.171875 L 5.359375 -1.203125 L 5.359375 -6.171875 L 6.0625 -6.171875 Z M 6.0625 0 "/></g></g></g><g fill="#fcfff9" fill-opacity="1"><g transform="translate(427.184387, 275.956844)"><g><path d="M 5.96875 -6.171875 L 5.96875 -2.53125 C 5.96875 -1.726562 5.738281 -1.097656 5.28125 -0.640625 C 4.820312 -0.191406 4.191406 0.03125 3.390625 0.03125 C 2.578125 0.03125 1.941406 -0.191406 1.484375 -0.640625 C 1.023438 -1.097656 0.796875 -1.726562 0.796875 -2.53125 L 0.796875 -6.171875 L 1.5 -6.171875 L 1.5 -2.53125 C 1.5 -1.9375 1.664062 -1.472656 2 -1.140625 C 2.34375 -0.804688 2.804688 -0.640625 3.390625 -0.640625 C 3.984375 -0.640625 4.441406 -0.804688 4.765625 -1.140625 C 5.097656 -1.472656 5.265625 -1.9375 5.265625 -2.53125 L 5.265625 -6.171875 Z M 5.96875 -6.171875 "/></g></g></g><g fill="#fcfff9" fill-opacity="1"><g transform="translate(434.647537, 275.956844)"><g><path d="M 4.84375 -1.5625 L 1.46875 -1.5625 L 0.78125 0 L 0.03125 0 L 2.796875 -6.171875 L 3.53125 -6.171875 L 6.296875 0 L 5.53125 0 Z M 4.53125 -2.234375 L 3.140625 -5.359375 L 1.765625 -2.234375 Z M 4.53125 -2.234375 "/></g></g></g><g fill="#fcfff9" fill-opacity="1"><g transform="translate(441.670702, 275.956844)"><g><path d="M 1.640625 -0.671875 L 4.34375 -0.671875 L 4.34375 0 L 0.9375 0 L 0.9375 -6.171875 L 1.640625 -6.171875 Z M 1.640625 -0.671875 "/></g></g></g></svg>